<?xml version="1.0" standalone="no"?>
<!DOCTYPE svg PUBLIC "-//W3C//DTD SVG 20010904//EN"
 "http://www.w3.org/TR/2001/REC-SVG-20010904/DTD/svg10.dtd">
<svg version="1.0" xmlns="http://www.w3.org/2000/svg"
 width="2154.000000pt" height="2154.000000pt" viewBox="0 0 2154.000000 2154.000000"
 preserveAspectRatio="xMidYMid meet">

<g transform="translate(0.000000,2154.000000) scale(0.100000,-0.100000)"
fill="#000000" stroke="none">
<path d="M12228 20983 c7 -3 16 -2 19 1 4 3 -2 6 -13 5 -11 0 -14 -3 -6 -6z"/>
<path d="M10250 20420 c-204 -10 -488 -35 -645 -56 -60 -8 -150 -19 -200 -25
-49 -6 -106 -14 -125 -19 -19 -5 -60 -11 -90 -15 -30 -3 -86 -13 -125 -21 -38
-8 -128 -26 -200 -40 -292 -57 -510 -113 -905 -231 -63 -19 -142 -43 -175 -53
-88 -28 -384 -128 -425 -145 -19 -7 -80 -30 -135 -50 -55 -20 -136 -51 -180
-70 -44 -18 -156 -65 -250 -104 -93 -39 -177 -75 -185 -80 -8 -5 -98 -50 -200
-100 -102 -51 -194 -97 -205 -103 -11 -7 -63 -36 -115 -66 -52 -30 -129 -72
-170 -92 -119 -59 -396 -229 -610 -373 -147 -99 -525 -375 -645 -470 -55 -43
-126 -100 -158 -125 -528 -420 -1047 -943 -1474 -1487 -271 -343 -664 -928
-846 -1255 -101 -183 -337 -666 -467 -955 -157 -350 -277 -680 -400 -1095 -12
-41 -26 -79 -31 -84 -5 -6 -9 -24 -9 -42 0 -17 -6 -47 -14 -66 -8 -18 -22 -67
-31 -108 -9 -41 -29 -131 -45 -200 -39 -177 -51 -237 -60 -300 -4 -30 -19
-131 -34 -225 -27 -172 -43 -300 -51 -410 -6 -81 -34 -351 -46 -450 -16 -127
-23 -815 -10 -1015 34 -510 93 -1034 151 -1335 92 -474 270 -1124 424 -1548
37 -102 164 -401 232 -546 24 -51 44 -95 44 -97 0 -2 63 -131 139 -286 139
-284 289 -554 436 -788 43 -69 104 -165 134 -214 129 -205 452 -653 634 -879
228 -282 583 -664 884 -948 299 -283 521 -468 858 -713 83 -60 182 -132 220
-161 122 -90 324 -220 540 -350 196 -117 636 -347 820 -427 44 -20 147 -66
230 -103 324 -145 728 -303 1145 -446 474 -164 1166 -316 1790 -394 181 -23
528 -54 730 -65 752 -41 1869 66 2615 251 454 113 1024 302 1485 492 555 228
966 432 1495 742 569 334 1127 769 1647 1284 485 480 892 979 1324 1622 182
271 272 416 366 592 38 73 85 159 103 193 274 502 566 1225 733 1819 59 209
178 694 202 825 70 375 99 564 135 870 32 276 40 487 39 1000 -1 562 -5 634
-74 1245 -16 147 -83 526 -134 766 -82 383 -269 996 -423 1389 -70 178 -210
504 -251 585 -118 231 -254 476 -404 725 -264 438 -441 696 -764 1114 -283
366 -370 464 -773 866 -440 439 -823 757 -1396 1157 -296 206 -333 229 -604
382 -330 187 -631 338 -915 461 -138 59 -282 122 -321 138 -445 195 -1020 366
-1689 503 -286 59 -407 82 -516 99 -30 5 -82 13 -115 19 -168 27 -533 62 -845
81 -238 15 -856 20 -1070 10z m2898 -700 c339 -22 595 -71 907 -175 175 -58
239 -84 270 -109 20 -16 19 -16 -5 -12 -14 3 -90 21 -170 40 -80 19 -172 38
-205 41 -33 3 -91 10 -130 16 -255 33 -671 40 -989 15 -109 -9 -201 -18 -205
-20 -3 -2 -49 -9 -101 -15 -179 -22 -292 -48 -645 -153 -338 -100 -550 -185
-884 -356 -277 -142 -318 -166 -456 -267 -425 -311 -581 -441 -783 -649 -62
-64 -120 -116 -128 -116 -22 0 -14 18 49 106 28 41 63 92 77 113 114 177 370
462 545 610 346 292 779 546 1194 701 236 88 260 96 426 135 237 57 533 100
740 108 103 4 323 -2 493 -13z m-3278 -35 c52 -8 160 -26 240 -41 80 -14 183
-30 230 -34 47 -5 105 -13 130 -19 25 -6 82 -19 127 -28 46 -10 83 -21 83 -26
0 -11 -82 -65 -350 -232 -134 -83 -342 -236 -468 -344 -42 -36 -102 -86 -132
-111 -87 -70 -247 -210 -345 -300 -204 -188 -503 -492 -529 -539 -5 -9 -28
-38 -51 -66 -23 -27 -86 -113 -140 -190 -54 -77 -115 -162 -135 -190 -20 -27
-65 -102 -99 -165 -35 -63 -76 -134 -92 -158 -16 -24 -29 -46 -29 -49 0 -3
-22 -42 -49 -87 -71 -119 -233 -436 -281 -551 -24 -55 -46 -104 -50 -110 -3
-5 -24 -50 -45 -100 -21 -49 -43 -99 -50 -110 -7 -11 -50 -119 -97 -240 -79
-203 -121 -326 -193 -560 -15 -49 -33 -106 -41 -125 -7 -19 -27 -87 -45 -150
-17 -63 -44 -157 -60 -208 -16 -51 -29 -101 -29 -111 0 -10 -7 -36 -17 -57 -9
-22 -20 -55 -24 -74 -19 -79 -36 -146 -41 -160 -3 -8 -11 -35 -17 -60 -7 -25
-19 -67 -28 -95 -8 -27 -19 -72 -23 -100 -11 -64 -40 -175 -51 -195 -5 -10 -8
5 -9 43 0 31 4 57 9 57 5 0 13 29 16 65 4 35 13 69 20 75 7 6 11 20 8 30 -6
24 -10 25 -31 3 -16 -16 -17 -13 -20 35 l-3 52 -55 0 c-53 0 -54 0 -54 30 l0
30 -60 0 c-57 0 -60 1 -60 25 l0 25 -221 0 c-244 0 -249 -1 -249 -62 0 -33
-35 -78 -60 -78 -6 0 -10 -7 -10 -15 0 -8 -6 -15 -14 -15 -8 0 -16 -5 -18 -11
-2 -6 -31 -15 -63 -19 l-60 -7 45 -3 45 -3 -60 -8 c-33 -4 -82 -11 -108 -15
-45 -6 -51 -5 -74 20 -20 22 -32 26 -61 24 l-37 -3 -1 -83 c-1 -45 -4 -85 -7
-88 -9 -10 -24 32 -42 121 -9 44 -23 105 -31 135 -13 51 -19 83 -44 240 -5 30
-13 78 -19 105 -52 265 -66 979 -26 1325 46 404 101 672 210 1020 67 213 264
623 394 820 136 207 294 403 456 565 498 502 1137 880 1778 1050 94 25 353 85
442 103 84 16 665 14 775 -3z m3988 -574 c90 -12 212 -33 270 -46 59 -14 157
-37 217 -51 474 -111 1015 -358 1660 -757 132 -82 412 -286 578 -422 51 -41
170 -138 265 -216 288 -235 671 -609 946 -924 170 -195 411 -484 466 -560 24
-33 61 -79 82 -102 41 -46 54 -87 19 -62 -222 162 -324 226 -496 309 -194 94
-514 223 -620 250 -16 4 -64 17 -105 28 -87 24 -185 46 -325 72 -256 47 -382
58 -740 66 -229 5 -318 3 -490 -12 -137 -12 -274 -17 -395 -16 -230 4 -664
-24 -1046 -68 -50 -5 -189 -26 -310 -46 -120 -19 -262 -42 -314 -50 -107 -17
-562 -127 -745 -181 -201 -58 -447 -140 -595 -198 -64 -24 -334 -137 -390
-162 -71 -32 -98 -44 -190 -83 -205 -88 -711 -355 -805 -426 -17 -13 -40 -27
-51 -31 -22 -8 -139 -81 -277 -172 -45 -29 -89 -54 -96 -55 -8 -2 -17 -8 -19
-15 -2 -6 -17 -18 -32 -26 -16 -8 -48 -32 -73 -52 -71 -61 -189 -144 -195
-138 -3 3 4 15 16 28 12 13 22 31 22 41 0 9 6 16 13 14 22 -5 87 25 87 39 0 7
6 13 13 13 6 0 25 14 41 30 16 17 38 30 48 30 21 0 24 28 4 36 -11 4 -12 13
-6 35 10 33 6 204 -5 264 -10 48 -18 55 -72 55 l-43 0 0 50 0 50 -45 0 c-60 0
-85 24 -85 84 l0 45 -52 3 -53 3 -3 53 -3 52 -45 0 c-72 0 -84 20 -84 139 l0
98 -112 9 -113 9 -6 66 c-6 78 -22 99 -79 106 l-40 6 7 39 c4 29 2 43 -8 50
-11 7 -11 11 -1 15 6 2 12 11 12 19 0 8 -6 13 -12 11 -7 -1 -14 10 -16 25 -2
19 2 28 17 33 20 6 30 35 13 35 -9 0 -57 -53 -82 -90 -8 -12 -39 -52 -68 -88
-51 -65 -71 -106 -58 -119 4 -4 13 3 22 15 16 23 34 21 34 -3 0 -7 -10 -15
-22 -17 -13 -2 -29 -15 -37 -33 -12 -24 -16 -26 -19 -12 -5 25 -36 17 -40 -11
-2 -15 2 -22 13 -22 9 0 15 -6 12 -12 -2 -7 -17 -13 -32 -13 -20 0 -33 -7 -40
-22 -7 -13 -19 -31 -28 -41 -10 -10 -17 -22 -17 -26 0 -4 -24 -44 -54 -89 -58
-89 -86 -140 -86 -157 0 -5 -16 -33 -35 -60 -19 -27 -35 -56 -35 -63 0 -7 -5
-18 -11 -24 -14 -14 -28 -39 -73 -133 -20 -41 -41 -82 -46 -90 -11 -16 -20
-35 -71 -148 -16 -37 -48 -102 -69 -145 -22 -43 -40 -85 -40 -92 0 -7 -8 -28
-17 -47 -33 -66 -41 -84 -57 -135 -10 -29 -22 -55 -27 -59 -12 -7 -28 -47 -93
-224 -29 -80 -63 -165 -74 -190 -12 -25 -34 -83 -50 -130 -16 -47 -42 -116
-57 -155 -15 -38 -44 -117 -66 -175 -21 -58 -55 -148 -74 -200 -20 -52 -45
-122 -54 -155 -10 -33 -26 -80 -35 -105 -9 -25 -32 -92 -50 -150 -19 -58 -57
-175 -85 -260 -27 -85 -62 -186 -76 -225 -14 -38 -36 -99 -47 -135 -38 -119
-71 -200 -81 -200 -10 0 -2 99 13 160 5 19 14 62 21 95 6 33 27 123 44 200 48
205 82 353 94 410 13 58 77 301 149 560 28 99 53 196 57 215 4 19 17 67 30
105 40 124 92 288 120 380 169 563 303 919 454 1209 93 180 323 571 466 791
17 28 58 91 90 140 99 155 310 444 421 580 188 228 645 672 864 839 321 245
737 473 1155 633 287 111 753 231 1050 273 250 34 326 38 685 36 286 -3 373
-7 508 -25z m-7768 -703 c0 -7 -36 -58 -80 -113 -45 -55 -120 -152 -167 -215
-48 -63 -121 -158 -163 -210 -69 -87 -201 -268 -277 -380 -48 -72 -122 -211
-187 -350 -19 -41 -46 -95 -60 -120 -71 -127 -288 -619 -321 -730 -4 -14 -13
-38 -20 -55 -11 -27 -53 -159 -76 -240 -4 -16 -18 -61 -29 -100 -43 -142 -95
-370 -141 -620 -11 -60 -24 -130 -29 -155 -6 -25 -15 -99 -20 -165 -6 -66 -18
-176 -26 -245 -8 -69 -12 -141 -9 -160 6 -41 -9 -74 -24 -51 -8 12 -11 10 -16
-10 -8 -34 -68 -40 -85 -9 -13 24 -3 47 13 31 6 -6 17 -11 24 -11 21 0 15 27
-9 44 -20 14 -24 14 -52 -7 -17 -13 -38 -26 -47 -29 -9 -4 -20 -23 -23 -43 -4
-21 -12 -46 -19 -55 -8 -14 -8 -22 2 -33 10 -13 15 -12 38 9 14 13 32 24 39
24 12 0 60 -78 52 -85 -2 -2 -49 -5 -104 -8 -109 -6 -117 -3 -157 54 -18 24
-41 16 -32 -11 5 -15 1 -18 -20 -15 -19 2 -25 -2 -23 -14 3 -12 15 -16 48 -16
58 0 62 -25 7 -40 -21 -6 -42 -17 -46 -24 -5 -8 -17 -11 -28 -7 -13 4 -26 -1
-37 -13 -22 -24 -13 -41 22 -41 15 0 34 -4 42 -10 11 -7 9 -11 -13 -19 -37
-14 -52 -14 -79 2 -33 18 -48 34 -48 50 0 8 -7 17 -15 21 -20 7 -19 -14 2 -81
14 -44 21 -53 40 -53 18 0 23 -6 23 -25 0 -14 -8 -29 -19 -35 -34 -18 -44 -12
-38 23 6 37 -2 61 -23 65 -8 1 -25 8 -37 14 -30 15 -33 10 -24 -32 5 -24 15
-39 34 -48 36 -17 34 -34 -7 -56 -40 -22 -69 -15 -84 20 -16 33 -15 42 3 60
21 22 19 44 -5 44 -11 0 -20 -4 -20 -10 0 -5 -18 -19 -40 -30 -22 -11 -40 -24
-40 -28 0 -14 23 -32 41 -32 9 0 23 -7 30 -16 12 -14 10 -19 -12 -38 -14 -11
-29 -29 -32 -39 -11 -29 -28 -8 -22 26 5 29 2 34 -40 60 -55 32 -75 34 -75 6
0 -16 4 -19 20 -14 14 4 22 1 27 -11 4 -11 1 -20 -7 -22 -7 -3 -23 -15 -35
-28 -12 -13 -27 -24 -33 -24 -11 0 -22 23 -22 50 0 10 -5 20 -11 22 -7 2 -12
17 -13 33 -1 17 -4 29 -8 28 -5 -2 -15 -3 -23 -3 -9 0 -15 -9 -15 -25 0 -15
-6 -25 -14 -25 -8 0 -25 -13 -38 -28 -19 -23 -29 -27 -50 -21 -30 8 -128 70
-128 81 0 5 -4 8 -10 8 -5 0 -10 -9 -10 -21 0 -11 -4 -17 -10 -14 -23 14 -8
-39 20 -68 16 -18 30 -40 30 -49 0 -27 -51 -23 -86 7 -16 14 -37 25 -46 25 -9
0 -20 9 -23 20 -11 33 -25 22 -25 -19 0 -46 23 -75 51 -66 24 8 25 -12 3 -43
-12 -18 -25 -22 -65 -22 -27 0 -49 2 -49 4 0 2 7 17 15 32 20 39 19 61 -5 74
-15 8 -20 21 -20 50 0 31 -5 43 -25 56 -25 16 -56 16 -56 -1 0 -5 10 -11 21
-13 15 -3 18 -7 11 -15 -5 -7 -11 -25 -13 -42 -2 -24 -8 -30 -28 -30 -14 0
-35 -6 -47 -13 -12 -6 -28 -12 -36 -12 -8 0 -18 -7 -21 -16 -10 -25 -7 -152 4
-159 10 -6 20 27 18 60 -4 54 3 85 17 85 8 0 15 -5 15 -11 0 -5 6 -7 13 -3 9
6 9 5 0 -8 -7 -8 -16 -44 -20 -79 -5 -53 -11 -69 -36 -92 -16 -15 -32 -26 -34
-23 -23 22 -40 662 -23 831 16 161 68 442 89 484 4 9 13 43 20 76 16 78 94
333 124 410 87 219 206 459 307 620 245 389 393 584 635 834 495 512 749 709
1277 989 40 22 117 62 170 91 54 28 139 78 190 111 51 33 97 60 104 60 6 0 35
17 65 39 30 21 77 50 104 64 28 14 97 57 155 96 112 74 120 78 120 59z m-643
-1520 c-3 -7 -5 -2 -5 12 0 14 2 19 5 13 2 -7 2 -19 0 -25z m-32 -161 c-9 -51
-23 -124 -30 -164 -8 -39 -19 -100 -24 -135 -5 -35 -19 -122 -30 -194 -64
-409 -71 -1077 -15 -1464 40 -274 48 -326 80 -474 19 -88 37 -163 40 -167 2
-4 31 -113 64 -241 92 -363 108 -422 162 -598 27 -91 52 -174 55 -185 3 -11
46 -153 95 -315 49 -162 98 -324 108 -360 50 -170 114 -381 134 -440 44 -125
108 -326 142 -442 19 -65 79 -245 133 -400 83 -236 163 -479 247 -751 8 -26
19 -69 24 -95 5 -26 11 -56 15 -67 3 -11 -13 18 -36 65 -44 91 -292 821 -514
1515 -37 116 -73 228 -81 250 -7 22 -27 85 -43 140 -16 55 -43 143 -59 195
-101 322 -144 458 -175 560 -75 244 -167 563 -216 755 -28 110 -67 259 -85
330 -19 72 -46 186 -61 255 -14 69 -33 152 -40 185 -53 239 -78 543 -78 935 1
436 23 687 94 1040 30 150 80 348 94 371 17 26 17 -12 0 -104z m4023 -285 c3
-9 -2 -13 -14 -10 -9 1 -19 9 -22 16 -3 9 2 13 14 10 9 -1 19 -9 22 -16z
m6987 -222 c235 -20 507 -63 697 -110 264 -66 627 -226 914 -403 74 -45 161
-98 193 -117 107 -65 295 -207 401 -303 109 -99 374 -385 491 -532 180 -224
410 -627 535 -935 96 -239 202 -592 259 -865 24 -114 27 -144 22 -245 -3 -63
-13 -137 -21 -165 -9 -27 -16 -59 -16 -70 0 -11 -7 -33 -15 -49 -8 -15 -15
-32 -15 -37 0 -24 -97 -213 -148 -289 -59 -87 -221 -259 -283 -301 -148 -99
-191 -124 -277 -160 -53 -23 -104 -48 -113 -55 -8 -8 -21 -14 -28 -14 -6 0
-58 -14 -114 -31 -56 -17 -112 -34 -124 -36 -13 -3 -23 -9 -23 -14 0 -13 -42
-11 -70 5 -357 191 -507 251 -870 351 -30 9 -68 20 -85 24 -166 49 -314 90
-660 186 -276 77 -485 136 -705 201 -47 14 -123 36 -170 49 -47 13 -114 32
-150 43 -36 11 -141 41 -235 67 -93 26 -213 60 -265 75 -52 15 -142 40 -200
55 -58 15 -130 36 -160 45 -30 10 -100 30 -155 45 -55 15 -127 35 -160 45 -33
10 -127 37 -210 60 -82 23 -193 54 -245 70 -52 16 -134 40 -182 55 -49 14
-127 37 -175 51 -49 15 -137 41 -198 59 -60 18 -166 49 -233 69 -188 56 -409
130 -535 180 -61 24 -143 56 -182 71 -38 15 -95 36 -125 48 -50 19 -261 109
-335 142 -16 8 -88 37 -160 65 -207 82 -194 96 26 29 127 -39 262 -79 339 -99
92 -25 170 -48 345 -102 105 -33 201 -63 215 -67 14 -5 61 -19 105 -31 44 -12
130 -37 191 -56 61 -19 153 -45 205 -59 52 -13 126 -33 164 -45 39 -12 88 -23
110 -24 22 -2 50 -9 62 -17 25 -15 41 -6 24 14 -9 12 -4 16 28 21 21 3 44 13
51 21 16 20 74 21 67 1 -4 -10 6 -15 36 -19 23 -2 52 -8 64 -12 15 -5 26 -1
39 13 14 17 20 18 36 9 15 -10 21 -9 28 3 7 12 12 12 22 2 20 -20 45 -15 44
11 -1 20 4 22 51 22 59 0 75 9 48 29 -18 13 -18 14 3 25 18 10 23 9 28 -4 9
-23 41 -18 59 8 19 29 56 47 95 47 19 0 30 5 30 14 0 7 9 16 20 19 11 3 24 17
29 30 9 23 14 25 46 20 35 -6 35 -5 35 30 0 28 4 35 23 39 13 3 34 1 47 -4 13
-5 26 -5 29 -2 3 4 0 9 -6 11 -26 9 -12 31 25 36 35 6 66 28 97 72 15 20 15
20 38 -8 13 -15 26 -24 30 -21 13 13 7 62 -8 68 -18 6 -20 27 -3 24 6 -2 18 9
25 25 8 15 20 27 28 27 8 0 19 9 25 19 5 11 29 26 52 33 31 11 44 21 46 36 2
12 12 27 23 32 16 9 19 7 19 -14 0 -35 18 -42 45 -16 l23 21 20 -21 c15 -16
22 -18 27 -9 5 7 1 17 -8 24 -10 7 -17 24 -17 39 0 15 -3 26 -7 24 -5 -2 -20
-10 -36 -17 -54 -28 -45 11 13 54 23 17 37 22 44 15 15 -15 30 -12 44 10 10
16 10 24 0 40 -11 16 -10 23 5 37 9 9 29 17 44 18 21 0 32 8 45 33 9 19 32 48
52 66 22 19 36 41 36 55 0 15 7 25 21 28 11 3 25 16 30 30 5 13 19 27 32 32
12 5 29 16 36 25 18 22 36 20 53 -6 15 -22 38 -18 38 8 0 8 -10 14 -25 14 -42
0 -41 26 2 67 22 21 47 50 57 65 10 15 27 28 39 30 14 2 22 10 22 24 1 11 11
33 23 49 12 15 22 31 22 34 0 4 21 18 46 31 28 15 51 37 59 55 7 17 29 48 49
70 21 22 44 52 52 67 8 15 27 34 43 43 16 8 32 23 36 34 6 21 87 91 104 91 5
0 20 14 32 31 12 17 45 46 73 65 69 46 135 92 186 132 24 17 51 32 60 32 10 0
23 7 30 15 6 8 22 17 33 21 12 3 50 20 85 36 91 42 112 50 157 58 22 4 54 12
70 18 89 31 133 42 160 42 17 0 48 5 70 11 l39 11 -23 19 c-27 22 -47 20 -43
-5 4 -22 -13 -20 -41 7 -39 35 -109 54 -300 81 -437 63 -1037 57 -1497 -15
-116 -18 -515 -94 -620 -119 -19 -4 -71 -15 -115 -24 -44 -9 -116 -25 -160
-36 -44 -11 -120 -29 -170 -41 -49 -11 -180 -47 -290 -79 -110 -32 -254 -72
-320 -90 -160 -41 -211 -56 -330 -92 -55 -17 -140 -43 -190 -58 -97 -30 -116
-36 -365 -105 -160 -44 -270 -78 -565 -170 -77 -24 -176 -53 -220 -65 -44 -12
-96 -28 -115 -35 -19 -8 -127 -41 -240 -75 -283 -85 -481 -146 -570 -175 -41
-14 -158 -52 -260 -86 -102 -33 -200 -67 -218 -75 -18 -8 -41 -14 -52 -14 -10
0 -22 -4 -25 -10 -3 -5 -17 -10 -30 -10 -13 0 -52 -13 -87 -29 -105 -48 -320
-138 -363 -151 -72 -23 -118 -42 -288 -122 -92 -44 -173 -78 -179 -76 -27 9
166 126 522 318 352 189 1091 589 1175 635 22 12 65 36 95 53 195 109 669 346
1095 549 110 52 241 114 290 138 50 24 146 67 215 94 69 27 163 66 210 86 47
20 101 42 120 50 550 204 942 331 1215 393 50 12 149 35 220 51 217 50 423 80
740 110 129 12 569 13 710 1z m-7211 -136 c7 -19 -2 -37 -15 -28 -5 3 -16 0
-24 -6 -12 -10 -15 -9 -15 7 0 37 42 58 54 27z m1006 -910 c0 -8 -5 -12 -10
-9 -6 4 -8 11 -5 16 9 14 15 11 15 -7z m-240 -269 c-7 -8 -17 -15 -22 -15 -6
0 -5 7 2 15 7 8 17 15 22 15 6 0 5 -7 -2 -15z m-188 -155 c-18 -16 -36 -30
-39 -30 -4 0 6 14 22 30 16 17 33 30 39 30 6 0 -4 -13 -22 -30z m-5442 -310
c0 -5 -4 -10 -9 -10 -6 0 -13 5 -16 10 -3 6 1 10 9 10 9 0 16 -4 16 -10z m128
-56 c-2 -63 -10 -74 -32 -42 -19 26 -21 52 -4 42 7 -4 8 -3 4 5 -12 20 2 61
19 55 10 -4 14 -21 13 -60z m-135 -114 c19 -17 -25 -32 -88 -28 -57 3 -65 1
-65 -15 0 -13 -5 -17 -19 -12 -11 3 -25 -1 -34 -10 -21 -20 -39 -19 -35 3 2 9
11 16 21 16 9 -1 17 2 17 7 0 5 5 9 10 9 6 0 23 11 38 25 25 23 32 25 87 19
33 -4 64 -10 68 -14z m143 -15 c8 -20 -4 -65 -17 -65 -15 0 -22 27 -15 55 7
28 24 33 32 10z m1524 -120 c3 -48 1 -65 -10 -65 -6 0 -10 27 -10 63 1 62 16
64 20 2z m-1533 -20 c-4 -8 -11 -15 -17 -15 -14 0 -13 27 3 33 16 6 21 1 14
-18z m-39 -57 c-6 -18 -28 -21 -28 -4 0 9 7 16 16 16 9 0 14 -5 12 -12z m1600
-62 c3 -12 -1 -17 -10 -14 -7 3 -15 13 -16 22 -3 12 1 17 10 14 7 -3 15 -13
16 -22z m-1934 -22 c4 -9 4 -19 2 -21 -8 -8 -26 8 -26 23 0 19 16 18 24 -2z
m-686 -52 c2 -14 -3 -25 -13 -29 -19 -7 -35 12 -35 40 0 28 44 18 48 -11z
m-104 -5 c12 -19 3 -32 -19 -24 -17 7 -21 51 -3 45 6 -2 16 -12 22 -21z m704
-4 c-4 -34 -28 -43 -28 -10 0 25 7 37 22 37 5 0 8 -12 6 -27z m2052 -56 c0
-24 -3 -28 -10 -17 -13 20 -13 63 0 55 6 -3 10 -21 10 -38z m1054 34 c3 -5 3
-24 -1 -41 l-6 -33 -13 26 c-19 35 1 80 20 48z m-3847 -20 c11 -17 9 -20 -16
-26 -17 -3 -31 -14 -34 -26 -3 -11 -14 -19 -26 -19 -26 0 -27 15 -3 32 11 7
24 23 31 36 14 27 32 28 48 3z m202 -57 c-13 -16 -79 -19 -79 -4 0 5 15 16 34
24 19 8 38 25 42 38 8 21 9 21 12 -10 2 -18 -2 -40 -9 -48z m175 51 c-4 -8
-10 -15 -15 -15 -5 0 -9 7 -9 15 0 8 7 15 15 15 9 0 12 -6 9 -15z m61 -60 c0
-26 -40 -33 -49 -9 -7 19 10 35 34 31 8 -1 15 -11 15 -22z m-1931 -7 c-45
-289 -48 -332 -48 -693 0 -403 11 -542 66 -784 62 -279 132 -478 254 -726 201
-408 334 -596 628 -890 279 -278 451 -399 981 -685 44 -23 85 -46 90 -50 6 -4
54 -31 109 -59 54 -29 155 -85 225 -125 69 -40 225 -126 346 -191 121 -64 225
-121 230 -126 15 -11 199 -109 359 -190 76 -39 155 -81 175 -93 20 -13 170
-91 333 -174 416 -212 800 -426 1053 -587 28 -17 88 -56 135 -86 47 -30 121
-87 165 -128 109 -102 366 -305 507 -401 83 -57 268 -205 260 -208 -11 -3
-115 56 -177 100 -69 50 -160 108 -168 108 -4 0 -26 12 -50 27 -41 27 -121 70
-287 158 -47 24 -101 53 -120 64 -19 11 -240 122 -490 246 -442 220 -957 481
-1110 562 -41 22 -178 93 -305 158 -475 243 -734 379 -960 505 -66 37 -176 96
-245 132 -294 154 -309 162 -445 238 -392 219 -560 342 -810 594 -160 162
-284 313 -400 491 -173 263 -344 623 -406 853 -84 315 -125 821 -91 1122 38
328 124 751 172 840 14 27 28 25 24 -2z m1389 -16 c9 -8 17 -28 17 -45 0 -28
1 -29 35 -23 40 8 46 -5 13 -28 -30 -21 -48 -20 -48 3 0 15 -8 21 -32 23 -25
2 -32 7 -30 20 2 10 -2 26 -7 36 -7 13 -7 22 1 30 12 12 22 9 51 -16z m197 8
c8 -5 13 -10 10 -10 -3 0 -26 -7 -51 -14 -41 -13 -50 -12 -68 0 -12 9 -19 20
-16 25 8 12 106 11 125 -1z m-430 -10 c0 -5 -4 -10 -10 -10 -5 0 -10 5 -10 10
0 6 5 10 10 10 6 0 10 -4 10 -10z m3160 -57 c0 -13 -4 -23 -10 -23 -5 0 -10
17 -10 38 0 27 3 33 10 22 5 -8 10 -25 10 -37z m993 -40 c-6 -58 -23 -82 -23
-32 0 42 10 79 20 79 4 0 5 -21 3 -47z m-3543 -11 c0 -10 -7 -27 -15 -38 -14
-18 -14 -17 -15 12 0 17 3 34 7 37 12 13 23 7 23 -11z m97 -34 c-3 -8 -6 -5
-6 6 -1 11 2 17 5 13 3 -3 4 -12 1 -19z m8473 -4 c0 -2 -9 -4 -20 -4 -11 0
-20 4 -20 9 0 5 9 7 20 4 11 -3 20 -7 20 -9z m-8860 -14 c0 -5 -4 -10 -10 -10
-5 0 -10 5 -10 10 0 6 5 10 10 10 6 0 10 -4 10 -10z m2868 -25 c-3 -3 -9 2
-12 12 -6 14 -5 15 5 6 7 -7 10 -15 7 -18z m-3073 -15 c4 -6 -7 -10 -25 -10
-18 0 -29 4 -25 10 3 6 15 10 25 10 10 0 22 -4 25 -10z m-251 -22 c7 -32 2
-168 -5 -168 -8 0 -29 114 -29 158 0 38 27 45 34 10z m3374 -100 c6 -6 12 -20
12 -30 0 -10 7 -29 15 -41 9 -14 11 -27 5 -37 -7 -11 -14 -3 -29 34 -12 26
-21 53 -21 61 0 7 -7 29 -15 49 -9 20 -12 42 -8 49 4 7 11 -5 18 -30 5 -23 16
-48 23 -55z m-3140 35 c2 -8 -5 -13 -17 -13 -21 0 -35 13 -24 24 10 10 36 3
41 -11z m8142 -48 c549 -45 1096 -241 1640 -588 186 -119 345 -253 572 -483
204 -207 339 -376 439 -550 173 -301 311 -631 387 -929 56 -217 71 -283 82
-367 7 -46 18 -126 26 -178 29 -200 37 -395 24 -585 -31 -465 -123 -889 -268
-1230 -69 -165 -215 -447 -278 -540 -78 -116 -269 -369 -327 -435 -75 -84
-230 -241 -311 -314 -176 -158 -297 -243 -567 -399 -212 -122 -240 -136 -396
-198 -502 -200 -905 -281 -1408 -283 -504 -2 -856 69 -1340 269 -486 201 -971
570 -1318 1004 -321 400 -565 835 -689 1226 -162 515 -212 1189 -127 1705 24
145 103 468 152 620 33 99 115 307 194 487 19 45 53 103 75 129 22 27 71 101
109 165 81 137 110 177 240 325 164 187 483 448 713 582 226 133 251 147 376
211 382 194 803 318 1206 355 201 18 580 19 794 1z m-8352 -121 c4 -47 -14
-36 -24 15 -6 26 -4 33 7 29 8 -3 15 -21 17 -44z m3417 -73 c3 -5 1 -12 -5
-16 -5 -3 -10 1 -10 9 0 18 6 21 15 7z m-3398 -73 c-3 -8 -6 -5 -6 6 -1 11 2
17 5 13 3 -3 4 -12 1 -19z m3450 -170 c-3 -8 -6 -5 -6 6 -1 11 2 17 5 13 3 -3
4 -12 1 -19z m-3377 -2 c0 -15 -14 -35 -21 -30 -15 9 -10 34 6 34 8 0 15 -2
15 -4z m3420 -103 c0 -18 -17 -16 -24 3 -8 22 4 40 15 23 5 -8 9 -20 9 -26z
m1286 -450 c-10 -26 -18 -8 -9 23 5 21 8 24 11 11 2 -10 1 -25 -2 -34z m-25
-86 c-13 -13 -15 11 -4 40 7 16 8 15 11 -6 2 -13 -1 -28 -7 -34z m6956 -1038
c51 -62 225 -185 358 -252 247 -125 515 -196 741 -197 303 0 511 36 1134 198
424 111 712 147 1023 130 177 -10 228 -20 422 -83 116 -39 191 -71 313 -136
222 -117 382 -239 557 -421 189 -198 324 -389 440 -623 122 -246 177 -434 242
-820 25 -154 25 -526 -1 -635 -10 -41 -21 -104 -26 -140 -4 -36 -13 -83 -20
-105 -6 -22 -14 -50 -17 -63 -3 -12 -9 -25 -14 -28 -5 -3 -9 -17 -9 -32 0 -15
-5 -34 -10 -42 -9 -13 -12 -12 -25 4 -20 27 -19 43 5 58 11 7 20 19 20 26 0 7
-4 10 -10 7 -10 -6 -60 38 -60 53 0 17 -30 22 -50 9 -16 -9 -24 -9 -40 1 -11
6 -35 12 -54 12 -29 0 -36 -5 -44 -30 -7 -20 -20 -31 -39 -36 -15 -4 -34 -11
-40 -17 -7 -5 -24 -7 -38 -5 -19 4 -31 -1 -45 -20 -18 -22 -25 -24 -66 -18
-34 4 -49 2 -61 -10 -14 -13 -17 -13 -34 2 -25 22 -24 44 1 44 11 0 20 6 20
13 0 17 30 51 48 55 9 2 12 -6 10 -25 -3 -31 -1 -33 42 -33 28 0 30 2 24 28
-4 15 -13 31 -21 35 -7 4 -13 16 -13 27 0 13 -5 17 -21 13 -11 -3 -23 -12 -26
-19 -9 -23 -43 -17 -43 7 0 18 -3 19 -15 9 -20 -16 -54 -3 -65 26 -13 32 -40
32 -40 -1 0 -17 4 -23 14 -19 8 3 23 -4 33 -15 9 -12 25 -21 35 -21 26 0 22
-10 -22 -60 -44 -48 -48 -73 -12 -78 24 -4 29 -21 10 -41 -11 -10 -10 -14 5
-22 21 -12 22 -25 1 -33 -26 -10 -52 10 -47 38 3 13 -3 36 -13 52 -14 20 -15
29 -6 32 14 4 16 42 2 42 -5 0 -12 -11 -16 -24 -4 -18 -11 -22 -26 -18 -11 2
-22 11 -25 18 -3 8 -14 14 -25 14 -16 0 -19 -5 -15 -22 4 -12 1 -28 -5 -35 -8
-10 -7 -17 7 -27 22 -16 12 -36 -19 -36 -31 0 -36 -8 -24 -36 15 -33 -5 -56
-21 -25 -7 12 -22 21 -36 21 -33 0 -40 16 -21 45 16 25 16 25 -18 25 -26 0
-36 -5 -41 -20 -3 -11 -10 -20 -15 -20 -16 0 -57 44 -61 65 -3 13 -16 22 -43
27 -37 8 -66 1 -38 -9 16 -6 62 -55 62 -65 0 -18 -40 -6 -59 17 -17 23 -24 25
-53 17 -28 -8 -33 -13 -31 -37 1 -16 7 -31 14 -35 12 -8 -8 -50 -24 -50 -5 0
-20 -9 -34 -20 -35 -27 -109 -27 -138 0 -18 17 -27 19 -48 11 -33 -13 -36 -52
-7 -81 11 -11 20 -22 20 -25 0 -9 -28 -5 -32 5 -2 6 -15 4 -32 -5 -41 -22 -56
-19 -56 10 0 15 6 25 14 25 44 0 44 67 0 90 -24 13 -27 13 -40 -5 -10 -13 -27
-20 -47 -20 -29 0 -33 -4 -38 -35 -4 -19 -7 -30 -8 -23 0 6 -10 9 -21 6 -11
-3 -31 -2 -45 1 -21 5 -24 11 -19 31 6 23 3 25 -26 25 -20 0 -38 7 -46 18 -9
11 -13 12 -14 4 0 -7 -12 -25 -28 -40 -15 -15 -34 -42 -41 -59 -15 -38 -14
-37 -42 -20 -18 10 -23 9 -40 -12 -10 -13 -19 -32 -19 -42 0 -23 -12 -24 -50
-4 -35 18 -39 35 -10 42 25 7 25 21 0 53 l-20 25 -26 -30 c-24 -29 -25 -29
-39 -11 -8 10 -21 16 -29 13 -9 -4 -18 -2 -21 3 -8 13 -65 13 -65 0 0 -14 -43
-13 -57 1 -12 12 -33 4 -33 -12 0 -5 6 -9 13 -9 6 0 30 -21 51 -46 28 -31 45
-44 58 -41 11 3 22 -2 28 -13 6 -10 19 -21 29 -25 11 -3 22 -13 25 -21 11 -29
-22 -25 -69 8 -26 18 -54 38 -63 43 -9 6 -66 46 -127 91 -60 44 -193 137 -295
205 -305 207 -364 249 -532 374 -88 66 -216 161 -283 210 -299 220 -595 512
-837 825 -125 162 -400 617 -467 772 -10 24 -39 86 -63 138 -72 152 -112 257
-288 750 -26 74 -62 173 -80 220 -52 139 -51 143 13 81 31 -30 78 -80 104
-112z m21 -2867 c7 -31 15 -70 18 -87 3 -16 14 -48 24 -70 9 -22 25 -58 35
-80 74 -167 110 -222 219 -330 81 -81 205 -185 220 -185 3 0 27 -13 53 -29
100 -61 309 -134 463 -161 37 -7 259 -15 520 -20 504 -9 534 -12 732 -83 216
-78 386 -172 546 -302 100 -82 259 -261 344 -390 114 -172 224 -431 262 -615
19 -94 39 -450 27 -482 -6 -16 -10 22 -13 117 -4 88 -11 157 -21 185 -15 45
-34 134 -46 220 -4 25 -19 67 -34 94 -15 27 -27 59 -27 72 0 13 -14 50 -31 81
-18 32 -42 77 -55 101 -25 47 -73 112 -55 75 16 -32 13 -43 -9 -43 -10 0 -23
-7 -28 -17 -7 -12 -17 -14 -41 -10 -41 9 -61 0 -61 -28 0 -18 -9 -26 -47 -38
-27 -8 -66 -15 -89 -14 -28 1 -47 -4 -60 -18 -19 -18 -19 -18 -22 3 -2 12 -8
22 -14 22 -6 0 -8 -12 -4 -31 4 -20 1 -35 -8 -45 -19 -18 -26 -18 -26 1 0 26
-22 41 -52 37 -23 -4 -28 -1 -28 16 0 27 -20 72 -33 72 -5 0 -6 -12 -2 -27 14
-60 17 -96 7 -89 -20 12 -74 -7 -84 -30 -8 -18 -15 -21 -28 -14 -20 11 -30 4
-30 -22 0 -22 -18 -23 -42 -1 -24 21 -23 28 9 67 24 31 29 33 55 24 31 -11 58
2 58 28 0 18 -53 19 -80 2 -17 -11 -22 -10 -30 2 -13 20 -13 63 0 55 6 -3 10
-4 10 -1 0 2 2 11 5 19 8 20 -53 9 -78 -14 -20 -18 -20 -18 6 -28 32 -12 35
-34 7 -59 -11 -9 -36 -32 -55 -50 -19 -19 -35 -30 -35 -25 0 5 -16 10 -35 11
-31 2 -35 0 -35 -21 0 -31 -27 -57 -36 -34 -6 17 12 57 25 57 5 0 12 11 15 25
7 28 36 34 56 11 13 -17 40 -11 40 9 0 18 -35 55 -53 55 -8 0 -30 -8 -49 -17
-18 -9 -40 -19 -48 -23 -8 -4 -17 -15 -19 -25 -1 -10 -14 -29 -27 -42 -31 -31
-30 -47 3 -71 19 -14 24 -24 19 -37 -6 -17 -10 -15 -36 14 -17 18 -30 38 -30
45 0 8 -7 19 -15 26 -12 10 -18 8 -32 -9 -19 -22 -43 -26 -120 -18 -26 3 -43
0 -43 -6 0 -6 -3 -8 -6 -5 -5 6 -74 -60 -74 -71 0 -10 -61 -41 -70 -36 -4 3
-11 -7 -14 -21 -6 -21 -11 -25 -34 -20 -15 3 -56 8 -92 11 -57 6 -68 4 -89
-14 -25 -21 -53 -26 -128 -22 -38 2 -43 0 -43 -18 0 -19 -4 -21 -40 -15 -27 4
-40 3 -40 -5 0 -6 7 -11 15 -11 20 0 19 -26 -1 -34 -11 -4 -18 1 -21 14 -6 23
-41 27 -49 5 -4 -8 -12 -15 -19 -15 -6 0 -23 -9 -36 -21 -14 -12 -31 -18 -44
-15 -11 3 -36 6 -55 6 -31 1 -33 2 -17 14 9 7 17 18 17 25 0 6 5 11 10 11 6 0
10 6 10 14 0 17 -53 32 -58 17 -2 -6 -9 -11 -16 -11 -20 0 -56 -35 -56 -55 0
-10 8 -24 18 -31 14 -11 15 -15 3 -23 -17 -11 -52 -2 -69 18 -11 14 -14 14
-31 -6 -26 -31 -51 -30 -51 2 0 18 5 25 19 25 20 0 35 25 25 41 -10 17 -34 9
-70 -26 -42 -41 -47 -42 -67 -12 -11 16 -18 19 -26 11 -15 -14 -4 -41 20 -47
10 -3 19 -11 19 -17 0 -20 -92 -3 -112 21 -23 27 -71 25 -91 -3 -12 -19 -18
-21 -28 -10 -9 8 -49 12 -126 12 l-113 0 6 25 c8 32 -4 32 -35 0 -19 -21 -22
-32 -18 -63 4 -20 11 -38 17 -40 5 -2 10 -35 10 -75 0 -49 -3 -68 -10 -61 -10
10 -119 415 -140 519 -5 22 -24 103 -43 180 -59 236 -96 411 -131 625 -57 346
-61 387 -60 660 1 255 6 318 59 695 8 61 15 112 15 114 0 2 3 1 7 -3 4 -4 14
-33 21 -64z m4912 -321 c0 -11 -26 -22 -34 -14 -12 12 -5 23 14 23 11 0 20 -4
20 -9z m-14895 -21 c194 -18 414 -53 570 -90 44 -10 113 -26 154 -35 131 -28
420 -113 696 -202 255 -84 566 -208 826 -331 210 -99 326 -152 333 -152 4 0
193 -92 419 -204 373 -185 521 -256 531 -256 2 0 55 -24 117 -54 214 -101 448
-199 671 -281 26 -10 53 -25 60 -33 12 -14 6 -14 -47 -8 -202 23 -1127 44
-2353 52 -563 3 -1021 8 -1020 10 2 1 168 5 368 8 499 8 760 17 760 27 0 5
-33 10 -72 10 -40 1 -65 3 -55 6 21 5 23 23 2 23 -8 0 -15 5 -15 10 0 6 7 10
16 10 9 0 14 6 11 13 -2 8 -19 11 -51 9 -62 -5 -76 8 -76 70 0 48 -15 78 -39
78 -6 0 -11 7 -11 15 0 8 -7 15 -15 15 -8 0 -15 -4 -15 -10 0 -5 -7 -10 -15
-10 -8 0 -15 7 -15 15 0 12 -13 15 -60 15 -33 0 -60 4 -60 9 0 5 -13 12 -30
16 -16 4 -30 13 -30 21 0 9 -11 14 -30 14 -30 0 -30 0 -30 59 0 84 -21 100
-122 93 -16 -1 -28 2 -28 7 0 5 -12 12 -27 16 -15 3 -31 12 -35 18 -3 6 -34
13 -67 15 -56 4 -60 6 -55 26 3 14 -2 30 -15 45 -18 21 -24 22 -52 12 -17 -6
-42 -8 -55 -5 -15 4 -24 2 -24 -5 0 -6 -17 -11 -40 -11 -29 0 -40 4 -40 15 0
23 -48 30 -86 11 -45 -21 -46 -21 -32 9 10 22 17 25 48 21 56 -6 68 7 37 38
-14 14 -35 26 -47 26 -11 0 -20 6 -20 14 0 11 -9 13 -35 9 -28 -5 -35 -2 -35
11 0 17 38 38 53 29 4 -2 7 5 7 16 0 11 9 22 19 26 25 8 35 34 15 42 -9 3 -24
-3 -35 -16 -22 -24 -21 -23 -43 -15 -21 8 -21 30 0 38 23 9 12 31 -16 31 -22
0 -33 12 -44 47 -8 26 -103 13 -133 -19 -24 -25 -63 -31 -63 -10 0 19 40 49
57 43 12 -5 14 -1 8 21 -8 35 -14 41 -24 25 -5 -9 -17 -11 -34 -6 -17 4 -27 2
-27 -5 0 -15 -38 -14 -55 2 -43 41 -88 67 -116 67 -20 0 -7 -28 16 -34 28 -7
34 -36 8 -36 -26 1 -59 32 -77 71 -23 53 -50 79 -75 72 -15 -4 -21 -1 -21 11
0 21 -16 21 -24 0 -8 -20 -50 -14 -54 8 -2 9 5 19 17 23 36 11 23 26 -18 19
l-38 -6 -6 43 c-3 24 -11 45 -16 47 -6 2 -11 25 -11 52 0 56 -9 66 -72 75 -34
5 -48 12 -48 23 0 13 13 14 93 9 51 -3 98 -2 105 2 25 15 -18 24 -123 26 -68
2 -110 7 -130 18 -21 11 -83 19 -200 27 -357 23 -366 24 -310 31 80 10 540 9
650 -1z m14964 -43 c12 -15 5 -27 -16 -27 -7 0 -13 9 -13 20 0 23 13 26 29 7z
m-351 -27 c32 -32 31 -40 -4 -40 -24 0 -44 25 -44 54 0 24 15 19 48 -14z
m-223 -30 c0 -40 -3 -45 -24 -48 -21 -3 -23 -1 -17 20 4 12 7 36 7 51 -1 22 3
28 16 25 14 -3 18 -13 18 -48z m675 -13 c0 -30 -10 -40 -26 -26 -10 8 -11 15
-1 30 16 26 27 24 27 -4z m-940 -16 c0 -9 -3 -10 -79 -35 -48 -16 -81 -8 -81
21 0 12 7 14 33 10 19 -3 40 -1 48 4 18 11 79 12 79 0z m454 -46 c3 -9 -1 -18
-10 -22 -19 -7 -39 11 -30 26 10 16 33 13 40 -4z m-638 -35 c-1 -34 -4 -40
-23 -40 -12 0 -27 9 -33 20 -8 15 -6 24 10 40 32 32 48 26 46 -20z m434 -4 c0
-11 -19 -15 -25 -6 -3 5 1 10 9 10 9 0 16 -2 16 -4z m635 -16 c0 -7 -6 -15
-12 -17 -8 -3 -13 4 -13 17 0 13 5 20 13 18 6 -3 12 -11 12 -18z m-1515 -30
c-15 -36 -30 -39 -30 -5 0 16 6 25 15 25 8 0 15 5 15 12 0 6 3 8 6 5 4 -4 1
-20 -6 -37z m1000 15 c0 -8 -9 -15 -20 -15 -11 0 -20 7 -20 15 0 8 9 15 20 15
11 0 20 -7 20 -15z m-666 -23 l27 -29 -28 -31 c-15 -18 -33 -32 -40 -32 -18 0
-16 35 2 50 14 11 13 14 -2 25 -9 7 -14 19 -10 29 9 23 19 20 51 -12z m-974 8
c0 -5 -9 -10 -20 -10 -11 0 -20 5 -20 10 0 6 9 10 20 10 11 0 20 -4 20 -10z
m1140 -39 c0 -5 -7 -11 -15 -15 -9 -3 -15 0 -15 9 0 8 7 15 15 15 8 0 15 -4
15 -9z m-670 -41 c0 -5 -4 -10 -10 -10 -5 0 -10 5 -10 10 0 6 5 10 10 10 6 0
10 -4 10 -10z m100 -55 c0 -8 -9 -15 -20 -15 -11 0 -20 7 -20 15 0 8 9 15 20
15 11 0 20 -7 20 -15z m1452 -27 c-7 -7 -12 -8 -12 -2 0 14 12 26 19 19 2 -3
-1 -11 -7 -17z m-14802 -14 c0 -17 -22 -14 -28 4 -2 7 3 12 12 12 9 0 16 -7
16 -16z m12955 -44 c16 -16 24 -30 18 -30 -14 0 -63 39 -63 51 0 17 16 9 45
-21z m485 -15 c0 -26 -14 -33 -25 -15 -9 14 1 40 15 40 5 0 10 -11 10 -25z
m-405 -73 c-6 -7 -35 18 -35 31 0 5 9 2 20 -8 11 -10 18 -20 15 -23z m-12668
-17 c-4 -8 -13 -15 -22 -15 -21 0 -19 28 3 32 22 5 26 2 19 -17z m251 -61 c12
-8 22 -26 22 -40 0 -14 6 -24 14 -24 23 0 30 -20 13 -38 -14 -14 -16 -13 -23
12 -6 25 -10 27 -48 24 -32 -2 -42 1 -44 15 -2 12 3 17 18 17 18 0 21 4 18 25
-6 29 -1 31 30 9z m-78 -14 c0 -5 -5 -10 -11 -10 -5 0 -7 5 -4 10 3 6 8 10 11
10 2 0 4 -4 4 -10z m-130 -30 c0 -5 -4 -10 -10 -10 -5 0 -10 5 -10 10 0 6 5
10 10 10 6 0 10 -4 10 -10z m100 -11 c0 -5 -9 -9 -20 -9 -22 0 -27 16 -7 23
15 5 27 -1 27 -14z m-120 -89 c0 -5 -6 -10 -14 -10 -8 0 -18 5 -21 10 -3 6 3
10 14 10 12 0 21 -4 21 -10z m30 -15 c10 -12 10 -15 -4 -15 -9 0 -16 7 -16 15
0 8 2 15 4 15 2 0 9 -7 16 -15z m13710 -95 c0 -5 -5 -10 -11 -10 -5 0 -7 5 -4
10 3 6 8 10 11 10 2 0 4 -4 4 -10z m-13463 -92 c-3 -8 -6 -5 -6 6 -1 11 2 17
5 13 3 -3 4 -12 1 -19z m8289 -375 c-12 -35 -16 -87 -16 -208 0 -332 61 -591
183 -782 15 -24 27 -47 27 -53 0 -5 4 -10 10 -10 5 0 16 -13 25 -29 14 -29
119 -157 194 -237 39 -42 57 -74 41 -74 -5 0 -14 9 -20 21 -6 11 -30 37 -53
57 -22 20 -48 45 -57 54 -8 10 -30 32 -47 49 -18 18 -33 37 -33 44 0 19 -43
53 -63 50 -16 -3 -18 1 -12 22 3 14 3 29 -2 32 -12 9 -28 36 -73 126 -22 44
-51 98 -64 120 -53 90 -89 316 -90 565 -1 104 -4 125 -16 125 -8 0 -16 -10
-18 -22 -2 -12 -10 -27 -18 -33 -8 -7 -14 -17 -14 -22 0 -23 -64 -138 -76
-138 -23 0 -16 23 31 94 25 38 45 74 45 81 0 7 7 18 15 25 8 7 15 18 15 25 0
7 7 18 15 25 8 7 15 21 15 31 0 10 15 48 33 85 24 49 33 61 35 44 2 -11 -4
-42 -12 -67z m4160 -276 c19 -16 25 -29 21 -41 -6 -16 -8 -16 -23 -2 -17 18
-20 18 -49 6 l-20 -8 20 -7 c11 -4 26 -9 33 -11 23 -7 10 -59 -15 -62 -17 -3
-24 3 -28 25 -12 50 -14 53 -50 53 -31 0 -35 3 -35 25 0 16 6 25 15 25 8 0 15
-7 15 -15 0 -8 2 -15 4 -15 2 0 11 -3 20 -6 11 -4 16 0 16 13 0 22 18 43 36
43 7 0 25 -11 40 -23z m-4912 -54 c-60 -118 -535 -843 -729 -1113 -163 -227
-257 -364 -387 -560 -63 -96 -151 -221 -194 -276 -98 -126 -181 -239 -269
-369 -188 -276 -571 -759 -744 -938 -137 -142 -420 -375 -596 -491 -208 -137
-626 -328 -879 -400 -169 -49 -495 -107 -771 -138 -164 -18 -624 -17 -685 1
-75 22 -26 29 237 29 312 1 578 26 833 77 41 8 100 20 130 26 86 17 198 45
275 69 76 24 331 122 361 139 11 5 87 44 169 84 173 86 303 160 395 225 277
197 528 427 702 647 242 304 532 694 771 1035 143 204 235 338 273 395 26 39
82 117 124 175 162 223 243 339 522 755 159 237 309 459 333 495 54 78 138
180 144 174 2 -2 -4 -21 -15 -41z m532 -92 c-9 -10 -16 -25 -16 -34 0 -10 -9
-34 -20 -54 -11 -21 -20 -45 -20 -53 0 -9 -7 -25 -14 -36 -8 -12 -20 -42 -27
-68 -6 -25 -15 -49 -20 -52 -5 -3 -9 -15 -9 -28 0 -13 -9 -33 -19 -45 -19 -21
-34 -68 -30 -87 1 -5 -3 -22 -9 -37 -7 -16 -12 -36 -12 -47 0 -10 -7 -31 -15
-46 -8 -16 -15 -46 -15 -67 0 -21 -7 -48 -15 -60 -8 -12 -13 -41 -12 -64 1
-26 -5 -49 -15 -60 -9 -10 -18 -47 -22 -85 -3 -36 -11 -79 -16 -95 -11 -33
-30 -203 -30 -268 0 -32 -4 -44 -11 -39 -20 12 7 356 43 529 53 261 157 577
255 770 48 95 57 106 61 71 2 -15 -4 -36 -12 -45z m3936 -28 c26 -24 24 -46
-4 -37 -31 9 -48 24 -48 40 0 19 30 18 52 -3z m312 -46 c12 -19 3 -32 -19 -24
-17 7 -21 51 -3 45 6 -2 16 -12 22 -21z m-794 -22 c9 -11 10 -19 2 -27 -14
-14 -32 -1 -32 23 0 23 13 25 30 4z m200 -4 c20 -6 22 -9 10 -16 -8 -6 -33
-14 -55 -20 -22 -5 -41 -16 -41 -22 -1 -7 -2 -18 -3 -24 0 -5 -6 -7 -11 -4 -6
4 -7 13 -1 23 5 10 7 30 4 45 -5 26 -4 27 33 26 22 -1 50 -4 64 -8z m-401 -30
c20 -13 5 -52 -17 -44 -37 13 -45 26 -26 40 21 15 24 16 43 4z m-109 -21 c0
-5 -4 -10 -10 -10 -5 0 -10 5 -10 10 0 6 5 10 10 10 6 0 10 -4 10 -10z m360
-40 c0 -5 -7 -10 -15 -10 -8 0 -15 5 -15 10 0 6 7 10 15 10 8 0 15 -4 15 -10z
m72 -35 c0 -5 -5 -11 -11 -13 -6 -2 -11 4 -11 13 0 9 5 15 11 13 6 -2 11 -8
11 -13z m-274 -42 c-4 -22 -22 -20 -26 1 -2 10 3 16 13 16 10 0 15 -7 13 -17z
m-478 -3 c0 -5 -4 -10 -9 -10 -5 0 -17 -7 -25 -16 -15 -14 -16 -13 -16 10 0
21 5 26 25 26 14 0 25 -4 25 -10z m-7805 -70 c112 -50 126 -56 205 -79 41 -13
85 -27 98 -32 13 -5 33 -9 46 -9 12 0 31 -6 41 -14 35 -25 -18 -30 -88 -8 -34
11 -87 25 -117 32 -57 12 -156 48 -177 63 -18 13 -1046 9 -1168 -4 -55 -6
-104 -15 -110 -19 -5 -4 -30 -10 -55 -13 l-45 -5 50 17 c28 9 61 22 75 28 14
6 72 26 129 45 l103 33 472 -1 471 -2 70 -32z m8375 30 c0 -5 -7 -10 -16 -10
-8 0 -12 5 -9 10 3 6 10 10 16 10 5 0 9 -4 9 -10z m-1074 -121 c9 -15 -6 -28
-44 -35 -25 -5 -32 -3 -32 9 0 29 61 50 76 26z m-2056 -35 c0 -8 -7 -14 -15
-14 -15 0 -21 21 -9 33 10 9 24 -2 24 -19z m-4701 -38 c160 -42 550 -80 739
-73 74 2 130 1 125 -3 -4 -4 -51 -24 -103 -45 -52 -20 -100 -41 -106 -46 -6
-5 -71 -32 -143 -59 -72 -27 -155 -60 -184 -74 -28 -13 -61 -26 -72 -29 -40
-11 -111 -38 -163 -62 -29 -14 -56 -25 -60 -25 -12 0 -182 -66 -281 -109 -52
-23 -99 -41 -105 -41 -6 0 -33 -11 -61 -25 -27 -13 -58 -25 -67 -25 -9 0 -19
-4 -22 -9 -3 -4 -34 -18 -68 -30 -35 -12 -81 -30 -103 -41 -98 -47 -176 -80
-188 -80 -7 0 -23 -7 -35 -16 -12 -8 -30 -14 -40 -11 -13 3 -10 7 13 16 17 7
42 19 57 27 14 8 31 14 38 14 6 0 18 7 26 15 9 8 26 15 38 15 13 0 29 6 35 14
7 8 25 18 41 21 16 4 44 16 62 28 18 13 60 31 93 42 33 11 69 25 80 32 11 7
29 13 42 13 25 0 93 37 93 51 0 5 9 9 21 9 11 0 33 7 47 14 15 8 45 22 67 31
22 9 53 23 68 31 16 8 37 14 47 14 9 0 23 7 30 15 7 8 22 15 35 15 12 0 30 9
40 20 12 13 31 20 54 20 20 0 62 14 95 30 32 17 65 30 72 30 19 0 17 17 -3 24
-13 5 -14 9 -4 19 10 9 14 8 22 -5 13 -23 24 -23 82 4 47 23 60 38 32 38 -8 0
-15 5 -15 10 0 6 11 8 25 4 50 -12 85 -8 85 10 0 17 -58 25 -147 20 -58 -4
-94 10 -59 21 9 3 23 7 32 10 28 9 -4 35 -42 35 -24 0 -32 -4 -28 -14 7 -19
-27 -25 -106 -19 -36 3 -77 5 -92 6 -16 0 -28 4 -28 8 0 5 41 9 90 9 91 0 120
13 55 26 -19 3 -38 10 -41 15 -3 5 -29 9 -59 9 -33 0 -59 5 -68 14 -8 8 -36
16 -63 18 -37 2 -50 7 -52 21 -3 14 4 17 34 17 21 0 63 -6 93 -14z m6151 -26
c0 -16 -7 -20 -30 -20 -33 0 -43 25 -12 33 34 9 42 7 42 -13z m400 -40 c-6
-11 -13 -20 -15 -20 -3 0 -5 9 -5 20 0 11 7 20 15 20 13 0 14 -4 5 -20z
m-1850 -10 c0 -11 7 -20 15 -20 8 0 15 -7 15 -15 0 -21 -9 -19 -36 11 -28 29
-30 44 -9 44 8 0 15 -9 15 -20z m1220 -106 c0 -21 -4 -33 -10 -29 -5 3 -10 22
-10 41 0 21 4 33 10 29 6 -3 10 -22 10 -41z m-3170 -29 c0 -3 -42 -59 -92
-126 -119 -155 -242 -323 -276 -374 -14 -22 -31 -44 -36 -50 -6 -5 -42 -52
-81 -102 -38 -51 -73 -93 -77 -93 -13 0 -9 17 7 30 8 7 15 19 15 27 0 9 18 33
40 55 21 22 42 48 45 59 4 10 10 19 15 19 5 0 19 20 31 45 12 25 26 45 30 45
4 0 11 10 15 23 6 20 50 83 81 115 7 7 13 20 13 28 0 8 5 14 11 14 6 0 9 12 7
28 -2 15 -8 26 -16 24 -7 -1 -20 -4 -30 -5 -9 -2 -37 -13 -61 -25 -24 -12 -67
-24 -95 -28 -28 -3 -60 -9 -71 -14 -31 -13 -166 -34 -210 -33 -107 3 -285 24
-366 44 -114 27 -157 23 -197 -22 -30 -33 -30 -34 -51 -15 -27 24 -26 33 2 42
29 9 80 45 73 52 -7 7 -77 -14 -131 -38 -22 -10 -83 -37 -135 -60 -52 -23
-104 -45 -115 -50 -11 -5 -83 -36 -160 -69 -77 -32 -198 -85 -270 -116 -182
-80 -431 -184 -490 -205 -27 -10 -75 -29 -105 -43 -69 -32 -549 -234 -765
-322 -44 -18 -100 -42 -125 -53 -25 -11 -67 -29 -93 -41 -203 -91 -603 -227
-828 -281 -451 -109 -1110 -140 -1578 -74 -104 14 -122 17 -196 34 -22 5 -96
21 -165 35 -145 31 -278 67 -370 100 -346 125 -427 158 -624 256 -77 39 -184
98 -237 130 -93 57 -194 137 -186 146 3 2 22 -6 43 -18 417 -234 873 -433
1154 -504 304 -77 511 -116 710 -136 200 -21 736 -18 915 4 435 52 759 133
1139 282 429 169 630 252 956 395 439 193 502 221 600 259 53 22 121 50 151
64 175 81 239 110 482 213 148 63 276 119 285 124 36 20 113 51 141 56 26 5
30 3 36 -24 8 -36 -2 -32 176 -75 174 -42 341 -54 459 -32 67 12 179 42 220
58 8 3 32 11 52 17 20 6 42 18 48 26 7 7 18 14 25 14 7 0 64 38 126 84 107 79
129 93 129 81z m-2593 -69 c-2 -6 -13 -12 -25 -14 -26 -4 -52 36 -31 48 15 10
61 -18 56 -34z m-127 19 c0 -8 -4 -15 -10 -15 -5 0 -10 7 -10 15 0 8 5 15 10
15 6 0 10 -7 10 -15z m5909 -17 c0 -28 -2 -30 -9 -13 -12 28 -12 45 0 45 6 0
10 -15 9 -32z m-744 -256 c-7 -7 -55 39 -55 52 0 5 13 -3 30 -19 16 -16 28
-31 25 -33z m41 -39 c-7 -7 -26 7 -26 19 0 6 6 6 15 -2 9 -7 13 -15 11 -17z
m220 -240 c37 -51 37 -58 1 -23 -20 19 -37 38 -37 43 0 15 17 6 36 -20z
m-6421 -3 c-3 -5 -12 -10 -18 -10 -7 0 -6 4 3 10 19 12 23 12 15 0z m-197 -72
c-3 -7 -13 -15 -24 -17 -16 -3 -17 -1 -5 13 16 19 34 21 29 4z m6726 -70 c8
-31 -10 -19 -27 17 -9 20 -17 39 -17 43 1 11 39 -41 44 -60z m-1477 10 c-3 -8
-6 -5 -6 6 -1 11 2 17 5 13 3 -3 4 -12 1 -19z m-1916 -47 c-14 -26 -38 -44
-45 -33 -8 13 33 64 45 56 5 -3 5 -12 0 -23z m-65 -88 c-10 -10 -19 5 -10 18
6 11 8 11 12 0 2 -7 1 -15 -2 -18z m-174 -255 c-7 -7 -12 -8 -12 -2 0 14 12
26 19 19 2 -3 -1 -11 -7 -17z m-108 -153 c-7 -16 -24 -21 -24 -6 0 8 7 13 27
20 1 1 0 -6 -3 -14z"/>
<path d="M5904 14718 c14 -202 26 -246 61 -235 16 6 18 47 2 65 -8 9 -18 46
-21 82 -16 151 -18 160 -33 160 -12 0 -14 -13 -9 -72z"/>
<path d="M5968 14435 c-13 -28 -6 -40 17 -32 17 7 21 57 5 57 -6 0 -16 -11
-22 -25z"/>
<path d="M10345 17490 c-3 -5 -1 -10 4 -10 6 0 11 5 11 10 0 6 -2 10 -4 10 -3
0 -8 -4 -11 -10z"/>
<path d="M10270 17425 c-8 -9 -8 -15 -2 -15 12 0 26 19 19 26 -2 2 -10 -2 -17
-11z"/>
<path d="M10185 17350 c-3 -5 -2 -10 4 -10 5 0 13 5 16 10 3 6 2 10 -4 10 -5
0 -13 -4 -16 -10z"/>
<path d="M10071 17236 c-7 -9 -8 -17 -2 -20 14 -9 41 4 41 20 0 18 -24 18 -39
0z"/>
<path d="M9837 17003 c-10 -9 -9 -23 2 -23 5 0 11 7 15 15 5 15 -5 20 -17 8z"/>
<path d="M9716 16871 c-4 -7 -5 -15 -2 -18 9 -9 19 4 14 18 -4 11 -6 11 -12 0z"/>
<path d="M9650 16789 c0 -5 5 -7 10 -4 6 3 10 8 10 11 0 2 -4 4 -10 4 -5 0
-10 -5 -10 -11z"/>
<path d="M9612 16745 c-24 -30 -28 -45 -12 -45 6 0 10 5 10 11 0 7 7 17 16 24
9 6 15 18 12 25 -3 9 -11 4 -26 -15z"/>
<path d="M9546 16669 c-23 -27 -34 -59 -21 -59 13 0 55 54 55 70 0 27 -4 25
-34 -11z"/>
<path d="M9481 16576 c-8 -10 -9 -16 -1 -21 5 -3 13 1 16 10 9 22 -1 29 -15
11z"/>
<path d="M10333 15413 c9 -2 25 -2 35 0 9 3 1 5 -18 5 -19 0 -27 -2 -17 -5z"/>
<path d="M10378 15363 c7 -3 16 -2 19 1 4 3 -2 6 -13 5 -11 0 -14 -3 -6 -6z"/>
<path d="M3770 14540 c0 -5 5 -10 11 -10 5 0 7 5 4 10 -3 6 -8 10 -11 10 -2 0
-4 -4 -4 -10z"/>
<path d="M4122 14478 c-15 -15 -16 -45 -2 -53 6 -3 10 3 10 15 0 11 7 23 15
26 8 4 15 10 15 15 0 13 -24 11 -38 -3z"/>
<path d="M4166 14425 c-11 -8 -17 -18 -13 -21 10 -11 37 4 37 21 0 18 0 18
-24 0z"/>
<path d="M3740 14355 c0 -8 5 -15 10 -15 6 0 10 7 10 15 0 8 -4 15 -10 15 -5
0 -10 -7 -10 -15z"/>
<path d="M4210 14340 c0 -5 5 -10 11 -10 5 0 7 5 4 10 -3 6 -8 10 -11 10 -2 0
-4 -4 -4 -10z"/>
<path d="M3115 14140 c3 -5 8 -10 11 -10 2 0 4 5 4 10 0 6 -5 10 -11 10 -5 0
-7 -4 -4 -10z"/>
<path d="M3410 14132 c0 -7 -5 -12 -11 -12 -6 0 -24 -13 -39 -30 -17 -18 -38
-30 -54 -30 -20 0 -26 -5 -26 -21 0 -17 4 -19 23 -13 26 8 66 36 67 47 0 4 9
7 20 7 19 0 40 44 26 57 -3 4 -6 1 -6 -5z"/>
<path d="M2830 14115 c0 -8 5 -15 10 -15 6 0 10 7 10 15 0 8 -4 15 -10 15 -5
0 -10 -7 -10 -15z"/>
<path d="M3524 14105 c-9 -21 -2 -27 38 -28 27 -2 33 2 33 18 0 26 -62 35 -71
10z"/>
<path d="M2898 14093 c6 -2 18 -2 25 0 6 3 1 5 -13 5 -14 0 -19 -2 -12 -5z"/>
<path d="M3047 14094 c-10 -11 3 -24 23 -24 13 0 17 5 14 15 -6 15 -26 20 -37
9z"/>
<path d="M2751 13965 c0 -35 2 -37 11 -19 7 15 7 28 -1 40 -9 16 -10 12 -10
-21z"/>
<path d="M2794 13985 c-7 -18 2 -45 15 -45 12 0 24 37 16 50 -9 15 -25 12 -31
-5z"/>
<path d="M16142 14488 c-18 -18 -14 -28 8 -28 11 0 20 6 20 14 0 21 -15 27
-28 14z"/>
<path d="M11125 14400 c-3 -5 1 -10 9 -10 8 0 18 5 21 10 3 6 -1 10 -9 10 -8
0 -18 -4 -21 -10z"/>
<path d="M10835 14250 c-3 -5 3 -10 14 -10 11 0 23 5 26 10 3 6 -3 10 -14 10
-11 0 -23 -4 -26 -10z"/>
<path d="M10955 14250 c-3 -5 1 -10 9 -10 9 0 16 5 16 10 0 6 -4 10 -9 10 -6
0 -13 -4 -16 -10z"/>
<path d="M10768 14217 c-21 -12 -38 -25 -38 -29 0 -15 48 -8 54 7 3 8 12 15
21 15 8 0 15 7 15 15 0 20 -8 19 -52 -8z"/>
<path d="M10641 14144 c-27 -19 -30 -24 -14 -24 10 0 23 4 29 9 5 5 20 11 33
13 14 1 26 9 29 16 6 20 -40 12 -77 -14z"/>
<path d="M15806 14128 c-20 -39 -6 -60 18 -27 18 26 20 45 7 54 -5 3 -17 -9
-25 -27z"/>
<path d="M15741 14017 c1 -7 4 -23 8 -36 6 -23 7 -23 29 -5 l22 19 -30 17
c-20 12 -30 13 -29 5z"/>
<path d="M15700 13965 c0 -8 7 -15 15 -15 8 0 15 7 15 15 0 8 -7 15 -15 15 -8
0 -15 -7 -15 -15z"/>
<path d="M15615 13939 c-4 -6 -5 -13 -2 -16 7 -7 27 6 27 18 0 12 -17 12 -25
-2z"/>
<path d="M15792 13918 c6 -18 28 -21 28 -4 0 9 -7 16 -16 16 -9 0 -14 -5 -12
-12z"/>
<path d="M15628 13845 c-3 -14 -1 -25 3 -25 5 0 9 4 9 9 0 5 3 16 6 25 3 9 2
16 -4 16 -5 0 -12 -11 -14 -25z"/>
<path d="M15587 13824 c-10 -10 -9 -44 2 -44 13 0 23 32 13 42 -5 5 -11 5 -15
2z"/>
<path d="M15490 13701 c0 -5 5 -13 10 -16 6 -3 10 -2 10 4 0 5 -4 13 -10 16
-5 3 -10 2 -10 -4z"/>
<path d="M15398 13672 c-19 -4 -25 -32 -8 -32 6 0 10 -7 10 -15 0 -19 14 -19
30 0 15 19 -7 52 -32 47z"/>
<path d="M15323 13552 c-8 -5 -9 -13 -3 -22 11 -17 23 -8 18 14 -2 9 -8 12
-15 8z"/>
<path d="M15280 13414 c0 -9 5 -14 12 -12 18 6 21 28 4 28 -9 0 -16 -7 -16
-16z"/>
<path d="M15050 13390 c0 -5 7 -10 15 -10 8 0 15 5 15 10 0 6 -7 10 -15 10 -8
0 -15 -4 -15 -10z"/>
<path d="M14990 13381 c0 -6 -9 -12 -19 -16 -13 -4 -17 -12 -14 -25 6 -23 43
-28 43 -6 0 7 9 16 20 19 28 7 25 32 -5 35 -14 1 -25 -2 -25 -7z"/>
<path d="M15130 13320 c0 -5 5 -10 10 -10 6 0 10 5 10 10 0 6 -4 10 -10 10 -5
0 -10 -4 -10 -10z"/>
<path d="M14896 13261 c-4 -7 -5 -15 -2 -18 9 -9 19 4 14 18 -4 11 -6 11 -12
0z"/>
<path d="M14715 13210 c-3 -5 1 -10 9 -10 9 0 16 5 16 10 0 6 -4 10 -9 10 -6
0 -13 -4 -16 -10z"/>
<path d="M14630 13120 c0 -5 5 -10 10 -10 6 0 10 5 10 10 0 6 -4 10 -10 10 -5
0 -10 -4 -10 -10z"/>
<path d="M14168 13048 c9 -9 15 -9 24 0 9 9 7 12 -12 12 -19 0 -21 -3 -12 -12z"/>
<path d="M5847 8769 c7 -7 15 -10 18 -7 3 3 -2 9 -12 12 -14 6 -15 5 -6 -5z"/>
<path d="M6015 8670 c4 -6 11 -8 16 -5 14 9 11 15 -7 15 -8 0 -12 -5 -9 -10z"/>
<path d="M6220 8550 c0 -5 5 -10 10 -10 6 0 10 5 10 10 0 6 -4 10 -10 10 -5 0
-10 -4 -10 -10z"/>
<path d="M6570 8346 c0 -2 7 -7 16 -10 8 -3 12 -2 9 4 -6 10 -25 14 -25 6z"/>
<path d="M10470 13115 c-293 -26 -616 -102 -920 -217 -296 -112 -669 -341
-945 -579 -116 -100 -272 -258 -330 -334 -230 -301 -307 -418 -397 -597 -60
-122 -85 -197 -142 -423 -25 -99 -59 -232 -76 -295 -75 -283 -95 -451 -87
-749 7 -267 45 -576 94 -766 16 -63 73 -242 91 -285 6 -14 27 -68 47 -120 77
-201 307 -598 477 -823 297 -394 669 -706 1097 -922 383 -193 741 -300 1150
-346 159 -18 573 -6 735 21 139 22 316 62 381 84 22 8 81 27 130 42 351 106
702 281 968 483 286 216 561 518 805 882 86 128 274 504 307 614 71 234 137
518 162 695 20 147 23 565 5 740 -73 690 -350 1336 -794 1847 -143 164 -397
382 -603 517 -166 109 -424 247 -552 295 -537 203 -1076 282 -1603 236z m788
-301 c41 -8 87 -14 102 -14 56 0 39 -19 -44 -49 -85 -30 -234 -102 -293 -141
-34 -23 -35 -23 -53 35 -17 52 -65 137 -90 160 -11 10 -20 23 -20 28 0 14 303
-1 398 -19z m-797 -44 c115 -39 199 -114 251 -225 28 -59 33 -84 36 -156 7
-152 -32 -258 -149 -411 -128 -166 -299 -441 -342 -550 -55 -136 -89 -428 -57
-487 7 -14 9 -41 6 -69 -4 -26 -2 -54 4 -62 5 -8 10 -11 10 -6 0 22 33 -23 64
-89 20 -39 51 -96 71 -124 19 -29 35 -58 35 -65 0 -6 14 -19 30 -28 17 -9 30
-24 30 -32 0 -9 15 -22 33 -30 60 -25 120 -67 110 -77 -6 -6 -68 -10 -139 -10
-206 0 -365 36 -529 118 -125 63 -167 94 -270 197 -184 185 -303 407 -361 676
-38 171 -19 447 46 662 68 228 151 371 310 528 147 147 281 221 457 255 106
20 271 13 354 -15z m1483 -227 c112 -27 183 -67 260 -145 83 -84 125 -160 156
-283 23 -94 24 -124 6 -225 -29 -164 -108 -306 -245 -441 -80 -78 -99 -91
-236 -158 -81 -40 -172 -90 -201 -112 -29 -21 -57 -39 -63 -39 -5 0 -23 -12
-40 -26 -27 -23 -59 -26 -46 -4 8 13 -62 32 -95 25 -25 -6 -31 -3 -41 19 -14
30 -65 54 -81 38 -7 -7 -1 -15 21 -26 33 -18 37 -26 20 -43 -8 -8 -21 -8 -49
2 -42 15 -54 9 -62 -30 -4 -26 -38 -33 -38 -8 0 39 -46 57 -70 28 -10 -13 -7
-17 24 -30 41 -18 44 -25 16 -50 -17 -15 -24 -16 -46 -7 -33 16 -33 16 -44
-12 -5 -15 -20 -27 -39 -31 -43 -9 -48 -24 -12 -31 57 -12 33 -36 -43 -44 -42
-4 -51 -9 -69 -41 -14 -23 -18 -42 -13 -55 5 -10 9 -37 11 -59 5 -81 73 -233
170 -378 21 -31 35 -60 31 -64 -11 -11 -177 170 -247 267 -108 151 -151 265
-184 484 -21 142 -19 235 10 416 39 246 91 424 140 481 17 19 69 90 114 158
75 109 93 129 175 190 119 88 298 194 361 214 152 48 312 55 449 20z m975
-503 c38 -19 86 -67 115 -114 15 -23 17 -46 14 -126 -3 -93 -5 -100 -34 -137
-60 -73 -77 -78 -266 -76 -92 2 -178 -1 -192 -7 -32 -12 -32 -7 -1 76 33 89
58 217 52 270 -6 53 9 76 66 106 81 42 175 45 246 8z m-4069 -56 c107 -48 164
-128 164 -229 1 -78 -40 -155 -108 -204 -41 -29 -58 -35 -119 -39 -122 -7
-238 43 -295 128 -91 134 -58 250 92 324 83 40 146 57 186 49 14 -2 50 -15 80
-29z m4111 -699 c174 -33 358 -123 441 -215 63 -70 132 -211 160 -324 20 -79
21 -97 11 -176 -14 -109 -51 -218 -98 -286 -46 -66 -145 -164 -215 -211 -163
-110 -476 -195 -760 -207 -344 -15 -564 -80 -783 -230 -138 -95 -144 -79 -19
48 39 40 98 90 132 112 33 21 76 49 96 62 19 12 41 22 48 22 8 0 19 7 27 16
10 12 10 17 0 23 -7 5 -11 22 -9 42 3 29 7 34 31 37 24 3 28 7 24 24 -4 14 0
22 14 25 23 6 26 45 4 63 -9 7 -14 19 -11 25 2 7 -2 23 -11 35 -19 28 -3 51
22 30 26 -22 30 -2 7 39 -12 21 -22 41 -22 45 0 11 36 6 48 -6 19 -19 23 -4 8
28 -8 16 -16 54 -18 84 -3 47 -1 55 15 54 18 -2 24 21 7 31 -6 4 -4 17 5 36
10 19 14 41 10 62 -5 24 -1 39 14 59 21 27 27 47 14 49 -22 2 -45 8 -50 13 -9
9 21 66 38 71 10 3 19 21 23 45 3 22 11 40 16 40 5 0 14 9 20 20 27 50 -7 22
-202 -166 -243 -236 -342 -419 -423 -782 -14 -64 -28 -124 -32 -132 -12 -31
-21 36 -22 170 -2 239 49 450 167 703 46 96 63 120 159 224 169 180 370 305
578 359 201 51 399 66 536 39z m-4196 -49 c156 -41 300 -186 320 -321 8 -49
-9 -215 -23 -224 -5 -3 -12 -34 -15 -69 -3 -35 -8 -66 -11 -69 -10 -10 -35 18
-38 42 -2 17 -7 22 -16 17 -9 -7 -10 -16 -1 -40 9 -26 8 -37 -5 -57 -9 -13
-16 -34 -16 -45 0 -11 -7 -23 -15 -26 -8 -3 -17 -14 -20 -25 -4 -10 -11 -18
-18 -16 -6 1 -13 -8 -15 -20 -2 -13 1 -23 6 -23 6 0 12 -20 14 -44 2 -36 0
-46 -14 -50 -14 -3 -18 -14 -18 -45 0 -32 5 -44 25 -57 22 -14 25 -23 25 -74
0 -68 15 -90 62 -90 23 0 28 -3 21 -12 -6 -7 -13 -29 -17 -49 -6 -35 -5 -36
25 -37 18 0 35 -6 40 -13 4 -7 27 -12 53 -12 33 1 50 -4 59 -16 6 -10 20 -20
30 -24 13 -5 16 -13 11 -32 l-6 -25 78 -2 c44 -1 102 -1 131 0 64 4 77 -13 26
-35 -57 -24 -426 -24 -538 1 -195 42 -417 156 -562 287 -171 155 -303 445
-303 668 0 246 184 476 428 536 74 17 233 18 297 1z m2615 -157 c0 -20 -24
-26 -35 -9 -4 6 -4 17 -1 25 7 20 36 7 36 -16z m-390 -249 c0 -5 -4 -10 -10
-10 -5 0 -10 5 -10 10 0 6 5 10 10 10 6 0 10 -4 10 -10z m1110 -295 c-12 -15
-30 -12 -30 6 0 5 10 9 21 9 18 0 19 -2 9 -15z m-35 -75 c3 -5 2 -10 -4 -10
-5 0 -13 5 -16 10 -3 6 -2 10 4 10 5 0 13 -4 16 -10z m-45 -341 c0 -5 -4 -9
-10 -9 -5 0 -10 7 -10 16 0 8 5 12 10 9 6 -3 10 -10 10 -16z m-1262 -1 c-3 -7
-40 -40 -84 -74 -96 -74 -124 -112 -124 -169 0 -56 -15 -68 -71 -56 -50 11
-76 37 -85 87 -9 51 2 80 48 125 71 69 144 97 251 98 50 1 68 -2 65 -11z m354
-91 c52 -22 110 -84 144 -153 24 -49 29 -72 29 -134 0 -130 -43 -183 -162
-202 -118 -18 -198 3 -279 74 -60 53 -94 123 -94 196 0 98 36 163 120 215 60
37 161 39 242 4z m2531 -127 c66 -31 113 -75 141 -132 40 -81 30 -151 -31
-219 -57 -63 -104 -82 -198 -83 -85 0 -155 25 -169 59 -3 9 -6 51 -7 93 0 42
-4 86 -8 96 -7 18 -9 16 -19 -14 -7 -18 -12 -43 -12 -55 0 -13 -9 -33 -20 -46
-15 -19 -21 -21 -29 -10 -19 29 26 149 59 158 12 3 26 24 36 52 21 55 48 88
89 106 45 20 119 18 168 -5z m-5477 -86 c38 -23 56 -44 81 -93 29 -55 33 -72
33 -139 -1 -150 -74 -231 -226 -248 -142 -17 -244 97 -244 270 1 99 51 184
133 226 63 32 157 25 223 -16z m2078 -47 c20 -27 20 -28 1 -60 -10 -17 -32
-48 -49 -68 -17 -19 -36 -44 -42 -54 -7 -13 -16 -16 -29 -12 -35 14 -7 153 43
210 21 24 51 18 76 -16z m293 -181 c108 -29 174 -115 181 -236 4 -60 1 -69
-30 -115 -31 -47 -95 -94 -128 -95 -9 0 3 17 27 39 38 34 63 75 63 102 0 16
-23 10 -61 -17 -51 -35 -125 -53 -209 -49 -75 4 -86 -4 -47 -36 39 -33 -3 -21
-45 13 -84 66 -98 170 -37 276 33 59 87 99 157 118 61 16 67 16 129 0z m2373
-80 c142 -47 222 -96 320 -195 104 -104 168 -205 212 -331 30 -89 32 -104 33
-230 0 -144 -14 -208 -71 -322 -71 -142 -190 -261 -309 -311 -171 -71 -398
-58 -587 33 -86 42 -119 63 -288 190 -297 222 -456 316 -730 429 -233 97 -295
127 -298 143 -3 13 9 17 65 22 164 15 434 79 474 112 8 8 30 17 48 20 17 4 36
15 42 25 5 11 17 19 25 19 26 0 116 52 152 88 18 17 47 39 65 47 18 8 52 31
77 50 25 19 59 42 76 50 17 7 37 22 45 31 8 9 39 29 69 43 30 15 66 34 80 44
26 18 192 73 245 80 60 9 162 -6 255 -37z m-1977 -161 c59 -54 60 -68 7 -63
l-40 4 0 -41 c-1 -22 -9 -56 -20 -75 -24 -44 -25 -24 -1 62 10 36 15 72 11 80
-11 21 -20 78 -12 78 4 -1 28 -20 55 -45z m127 -75 c21 -21 27 -50 10 -50 -6
0 -13 6 -16 14 -3 8 -19 19 -35 25 -16 5 -29 15 -29 20 0 19 49 12 70 -9z
m120 -5 c0 -9 -82 -88 -130 -126 -64 -50 -137 -82 -235 -104 -29 -6 -29 -6
-11 14 11 12 30 21 43 21 12 0 32 9 43 20 11 11 27 20 35 20 31 0 89 38 151
98 7 6 18 12 24 12 6 0 23 11 38 25 26 24 42 31 42 20z m-1567 -46 c69 -9 198
-54 317 -110 106 -50 330 -171 330 -179 0 -4 -35 -10 -77 -13 -170 -14 -447
-91 -544 -152 -21 -14 -42 -25 -47 -25 -5 0 -17 -9 -27 -21 -11 -11 -40 -35
-67 -54 l-47 -34 11 27 c7 15 22 39 35 53 l24 26 -32 7 c-17 3 -43 6 -56 6
-14 0 -38 13 -55 30 -29 30 -30 30 -148 30 -126 0 -150 4 -150 26 0 10 -15 14
-55 14 l-55 0 0 40 c0 26 5 40 13 40 7 0 14 11 15 25 1 21 -4 27 -28 32 -17 3
-30 9 -30 13 0 11 47 40 64 40 8 0 17 8 21 19 7 24 86 37 98 15 4 -8 15 -14
22 -14 18 0 20 30 3 30 -7 1 2 7 20 15 17 8 32 19 32 25 0 6 31 10 80 10 79 0
106 12 52 23 -32 7 -108 -1 -137 -13 -11 -5 -38 -11 -59 -14 -22 -3 -43 -11
-47 -17 -4 -7 -19 -13 -35 -15 -15 -2 -32 -8 -37 -13 -6 -6 -19 -11 -28 -11
-9 0 -22 -7 -29 -15 -7 -8 -18 -15 -25 -15 -23 0 -158 -97 -221 -159 -72 -69
-154 -173 -154 -194 0 -8 -7 -20 -15 -27 -8 -7 -15 -25 -15 -41 0 -16 -4 -29
-9 -29 -5 0 -12 -17 -16 -37 -4 -21 -11 -43 -16 -49 -5 -6 -12 -40 -15 -75 -9
-87 -20 -104 -28 -43 -5 33 -2 66 8 99 9 28 16 60 16 73 0 39 77 186 135 260
95 118 245 235 391 304 195 91 391 119 617 87z m-678 -250 c9 -28 0 -35 -20
-15 -9 9 -21 16 -26 16 -5 0 -9 5 -9 10 0 20 48 11 55 -11z m2078 -490 c38
-70 51 -86 66 -82 13 3 25 -4 37 -23 29 -42 79 -87 121 -109 21 -10 44 -24 52
-30 8 -5 44 -15 80 -21 36 -7 95 -17 131 -24 36 -6 100 -13 143 -15 73 -3 234
-21 285 -31 27 -5 126 -94 165 -147 117 -160 141 -398 60 -577 -61 -134 -188
-249 -328 -296 -155 -53 -371 -42 -505 26 -145 74 -315 302 -389 519 -33 97
-79 295 -91 391 -15 126 -12 290 6 373 20 89 82 277 98 296 8 11 12 -6 16 -75
5 -83 8 -95 53 -175z m-483 235 c0 -3 -17 -12 -37 -21 -21 -8 -65 -29 -98 -45
-33 -17 -114 -49 -180 -73 -139 -50 -151 -56 -228 -113 -119 -89 -205 -192
-261 -312 -73 -159 -83 -189 -90 -255 -4 -38 -11 -74 -17 -79 -11 -12 -12
-237 0 -286 4 -20 5 -44 1 -54 -5 -14 -9 -8 -21 25 -19 59 -17 277 4 391 41
222 158 440 299 560 136 117 267 182 518 256 38 11 110 15 110 6z m-530 -304
c0 -12 -28 -25 -36 -17 -9 9 6 27 22 27 8 0 14 -5 14 -10z m-80 -124 c0 -3 -4
-8 -10 -11 -5 -3 -10 -1 -10 4 0 6 5 11 10 11 6 0 10 -2 10 -4z m2773 -482
c124 -87 92 -271 -55 -320 -110 -36 -202 27 -221 151 -12 77 31 161 98 191 49
23 128 13 178 -22z m-3373 -334 c6 -35 26 -93 43 -127 31 -64 30 -87 -1 -65
-9 6 -48 30 -87 53 -38 23 -99 60 -135 82 -36 22 -75 47 -88 54 -27 17 -20 33
14 33 28 0 181 38 204 51 23 12 36 -9 50 -81z m1580 -302 c46 -32 70 -82 70
-145 0 -70 -23 -122 -68 -156 -33 -26 -43 -28 -95 -25 -52 4 -62 9 -99 45 -44
44 -57 96 -44 167 20 106 153 170 236 114z"/>
<path d="M11200 11197 c0 -18 21 -43 43 -50 25 -9 33 20 12 43 -20 23 -55 27
-55 7z"/>
<path d="M12130 10417 c0 -18 28 -42 37 -33 9 8 -9 38 -25 44 -7 2 -12 -3 -12
-11z"/>
<path d="M9130 9825 c0 -8 9 -15 20 -15 11 0 20 7 20 15 0 8 -9 15 -20 15 -11
0 -20 -7 -20 -15z"/>
<path d="M9540 8765 c-7 -9 -8 -15 -2 -15 5 0 12 7 16 15 3 8 4 15 2 15 -2 0
-9 -7 -16 -15z"/>
<path d="M19724 8665 c-8 -20 4 -65 16 -65 6 0 10 18 10 40 0 40 -15 54 -26
25z"/>
<path d="M19532 8559 c1 -12 9 -24 16 -27 9 -3 13 3 10 19 -1 12 -9 24 -16 27
-9 3 -13 -3 -10 -19z"/>
<path d="M19615 8500 c-3 -5 -4 -10 -1 -10 2 0 11 -3 20 -6 11 -4 16 -1 16 10
0 18 -25 22 -35 6z"/>
<path d="M19721 8494 c0 -11 3 -14 6 -6 3 7 2 16 -1 19 -3 4 -6 -2 -5 -13z"/>
<path d="M19530 8394 c0 -9 5 -14 12 -12 18 6 21 28 4 28 -9 0 -16 -7 -16 -16z"/>
<path d="M19300 8345 c0 -20 4 -26 18 -23 9 2 17 12 17 23 0 11 -8 21 -17 23
-14 3 -18 -3 -18 -23z"/>
<path d="M19180 8342 c0 -21 29 -52 48 -52 20 0 13 15 -18 43 -26 24 -30 25
-30 9z"/>
<path d="M19437 8331 c-3 -11 -18 -22 -36 -26 -17 -3 -37 -16 -45 -27 l-15
-21 -36 22 c-50 29 -58 27 -37 -11 13 -22 27 -34 45 -36 15 -2 27 1 27 7 0 7
19 10 47 8 45 -2 48 -1 53 28 4 20 11 29 22 27 9 -1 28 2 43 8 36 14 19 36
-29 38 -25 1 -35 -3 -39 -17z"/>
<path d="M19575 8330 c-3 -5 3 -10 14 -10 12 0 21 5 21 10 0 6 -6 10 -14 10
-8 0 -18 -4 -21 -10z"/>
<path d="M19530 8280 c0 -11 7 -20 15 -20 8 0 15 9 15 20 0 11 -7 20 -15 20
-8 0 -15 -9 -15 -20z"/>
<path d="M19627 8293 c-12 -11 -7 -33 7 -33 12 0 26 20 26 36 0 7 -26 5 -33
-3z"/>
<path d="M18385 8250 c-3 -5 1 -10 9 -10 9 0 16 5 16 10 0 6 -4 10 -9 10 -6 0
-13 -4 -16 -10z"/>
<path d="M18580 8219 c0 -5 5 -7 10 -4 6 3 10 8 10 11 0 2 -4 4 -10 4 -5 0
-10 -5 -10 -11z"/>
<path d="M16950 8170 c0 -5 5 -10 10 -10 6 0 10 5 10 10 0 6 -4 10 -10 10 -5
0 -10 -4 -10 -10z"/>
<path d="M18485 8160 c18 -20 72 -29 60 -10 -3 6 -15 10 -26 10 -10 0 -19 5
-19 10 0 6 -7 10 -17 10 -14 0 -14 -2 2 -20z"/>
<path d="M18677 8163 c-14 -13 -6 -42 15 -57 31 -22 38 -20 38 12 0 39 -32 67
-53 45z"/>
<path d="M17930 8145 c0 -16 9 -19 34 -9 20 8 11 24 -15 24 -10 0 -19 -7 -19
-15z"/>
<path d="M18817 8124 c-14 -14 -6 -39 18 -57 23 -17 25 -17 35 3 9 17 8 22 -7
27 -10 4 -23 13 -28 20 -6 8 -14 11 -18 7z"/>
<path d="M18043 8078 c2 -7 0 -23 -4 -35 -12 -32 10 -41 32 -12 16 22 16 25 2
41 -19 21 -37 24 -30 6z"/>
<path d="M18312 8069 c-30 -12 -19 -29 19 -29 23 0 30 4 27 17 -4 21 -17 24
-46 12z"/>
<path d="M18382 8018 c-34 -34 4 -68 52 -47 27 13 30 18 20 43 -7 19 -55 21
-72 4z"/>
<path d="M17562 7980 c0 -19 2 -27 5 -17 2 9 2 25 0 35 -3 9 -5 1 -5 -18z"/>
<path d="M17714 7985 c-8 -21 3 -45 20 -45 22 0 28 17 16 40 -13 24 -28 26
-36 5z"/>
<path d="M17325 7967 c-10 -8 -15 -19 -11 -25 5 -9 14 -7 31 5 14 10 25 21 25
26 0 12 -25 8 -45 -6z"/>
<path d="M17740 7904 c0 -8 5 -12 10 -9 6 3 10 10 10 16 0 5 -4 9 -10 9 -5 0
-10 -7 -10 -16z"/>
<path d="M17670 7885 c0 -18 5 -25 20 -25 23 0 24 4 10 31 -15 27 -30 24 -30
-6z"/>
<path d="M17230 7151 c0 -5 7 -11 15 -15 8 -3 15 -1 15 3 0 5 -7 11 -15 15 -8
3 -15 1 -15 -3z"/>
<path d="M17481 6934 c0 -11 3 -14 6 -6 3 7 2 16 -1 19 -3 4 -6 -2 -5 -13z"/>
<path d="M17504 6898 c-4 -6 1 -17 12 -25 20 -15 30 -4 20 22 -6 18 -22 19
-32 3z"/>
<path d="M17580 6828 c0 -18 27 -44 37 -34 4 4 -3 16 -15 29 -18 17 -22 18
-22 5z"/>
<path d="M17485 6710 c-3 -5 1 -10 9 -10 9 0 16 5 16 10 0 6 -4 10 -9 10 -6 0
-13 -4 -16 -10z"/>
<path d="M17679 6705 c-10 -9 14 -55 29 -55 6 0 12 4 12 9 0 14 -35 53 -41 46z"/>
<path d="M17720 6620 c0 -5 5 -10 10 -10 6 0 10 5 10 10 0 6 -4 10 -10 10 -5
0 -10 -4 -10 -10z"/>
<path d="M17400 6556 c0 -8 5 -18 10 -21 6 -3 10 3 10 14 0 12 -4 21 -10 21
-5 0 -10 -6 -10 -14z"/>
<path d="M16612 6360 c0 -14 2 -19 5 -12 2 6 2 18 0 25 -3 6 -5 1 -5 -13z"/>
<path d="M16166 6235 c-22 -17 -17 -29 8 -19 9 3 16 12 16 20 0 17 0 17 -24
-1z"/>
<path d="M16263 6215 c-46 -20 -42 -45 10 -64 47 -18 101 21 78 57 -11 18 -55
22 -88 7z"/>
<path d="M16080 6171 c0 -20 32 -37 50 -26 5 3 10 15 10 26 0 14 -7 19 -30 19
-23 0 -30 -5 -30 -19z"/>
<path d="M14780 6150 c0 -11 2 -20 4 -20 2 0 6 9 9 20 3 11 1 20 -4 20 -5 0
-9 -9 -9 -20z"/>
<path d="M15820 6160 c0 -5 11 -10 25 -10 14 0 25 5 25 10 0 6 -11 10 -25 10
-14 0 -25 -4 -25 -10z"/>
<path d="M15690 6147 c0 -9 9 -19 21 -22 16 -6 19 -12 14 -36 -5 -22 -3 -29 8
-29 25 0 47 29 47 61 0 25 -4 29 -29 29 -16 0 -36 3 -45 6 -10 4 -16 1 -16 -9z"/>
<path d="M14800 6061 c0 -11 5 -23 10 -26 6 -4 10 5 10 19 0 14 -4 26 -10 26
-5 0 -10 -9 -10 -19z"/>
<path d="M15490 6050 c0 -5 9 -10 20 -10 11 0 20 5 20 10 0 6 -9 10 -20 10
-11 0 -20 -4 -20 -10z"/>
<path d="M15126 6023 c-11 -12 -6 -41 9 -47 11 -4 15 1 15 19 0 25 -12 39 -24
28z"/>
<path d="M15350 6020 c0 -5 9 -10 20 -10 11 0 20 5 20 10 0 6 -9 10 -20 10
-11 0 -20 -4 -20 -10z"/>
<path d="M4760 7995 c0 -13 9 -16 43 -13 23 2 42 8 42 13 0 6 -19 11 -42 13
-34 3 -43 0 -43 -13z"/>
<path d="M4680 7840 c0 -5 20 -10 45 -10 25 0 45 5 45 10 0 6 -20 10 -45 10
-25 0 -45 -4 -45 -10z"/>
<path d="M4914 7709 c-10 -17 12 -32 36 -24 17 5 19 10 9 21 -14 17 -35 18
-45 3z"/>
<path d="M4996 7654 c-8 -20 -5 -23 23 -29 17 -3 21 1 21 21 0 28 -34 34 -44
8z"/>
<path d="M5530 7416 c0 -9 5 -16 10 -16 6 0 10 4 10 9 0 6 -4 13 -10 16 -5 3
-10 -1 -10 -9z"/>
<path d="M5493 7379 c-13 -5 -23 -15 -23 -24 0 -18 9 -19 34 0 24 19 17 35
-11 24z"/>
<path d="M9490 5670 c0 -5 5 -10 11 -10 5 0 7 5 4 10 -3 6 -8 10 -11 10 -2 0
-4 -4 -4 -10z"/>
<path d="M11501 5421 c-14 -4 -26 -12 -29 -19 -6 -19 23 -14 43 8 10 11 16 20
14 19 -2 -1 -15 -4 -28 -8z"/>
<path d="M645 13417 c-4 -10 -5 -21 -1 -24 10 -10 18 4 13 24 -4 17 -4 17 -12
0z"/>
<path d="M1172 13000 c0 -14 2 -19 5 -12 2 6 2 18 0 25 -3 6 -5 1 -5 -13z"/>
<path d="M525 12880 c-8 -13 -1 -24 14 -19 6 3 7 10 2 18 -6 10 -10 10 -16 1z"/>
<path d="M1131 12883 c0 -5 4 -17 9 -28 8 -18 9 -17 9 8 1 15 -3 27 -9 27 -5
0 -10 -3 -9 -7z"/>
<path d="M1112 12778 c-13 -13 -16 -85 -6 -112 13 -34 21 -13 21 54 0 39 -1
70 -1 70 -1 0 -7 -5 -14 -12z"/>
<path d="M1077 12603 c-9 -8 -9 -96 -1 -117 13 -33 24 -14 24 42 0 56 -10 89
-23 75z"/>
<path d="M534 12536 c5 -65 8 -71 31 -63 20 8 19 51 -1 68 -9 7 -20 22 -25 34
-7 14 -8 2 -5 -39z"/>
<path d="M462 12540 c-7 -28 -8 -60 -3 -85 l8 -40 7 66 c10 87 4 118 -12 59z"/>
<path d="M520 12286 c0 -7 -9 -16 -20 -19 -14 -3 -20 0 -20 11 0 8 -3 12 -7 8
-4 -4 -8 -57 -10 -119 -1 -62 -7 -148 -13 -192 -5 -44 -12 -133 -15 -199 -3
-96 -7 -122 -22 -138 -18 -20 -18 -20 -24 4 -4 12 -4 43 -1 66 6 49 -9 68 -40
49 -16 -11 -18 -27 -18 -154 0 -84 4 -143 10 -145 15 -5 16 -1151 1 -1156 -7
-2 -11 -56 -11 -164 0 -163 3 -176 41 -190 20 -8 30 -108 22 -223 -3 -44 -1
-103 4 -131 6 -29 6 -78 2 -115 -11 -82 -4 -113 26 -127 21 -10 24 -18 24 -64
0 -29 5 -91 10 -137 7 -67 13 -88 30 -100 17 -14 21 -28 22 -96 1 -45 8 -90
16 -102 7 -12 13 -30 13 -40 0 -10 7 -29 16 -41 11 -16 17 -51 19 -110 4 -99
20 -175 41 -193 8 -6 14 -29 14 -53 1 -56 18 -126 38 -156 9 -14 18 -41 19
-60 8 -105 16 -146 35 -167 14 -15 19 -31 16 -48 -4 -19 3 -34 28 -61 19 -19
34 -45 34 -58 0 -29 38 -137 56 -157 8 -8 14 -30 14 -48 0 -18 12 -58 27 -89
16 -31 29 -68 30 -82 0 -14 8 -50 17 -80 9 -30 16 -65 16 -78 0 -12 4 -30 9
-40 6 -9 18 -37 29 -62 11 -25 27 -62 36 -83 9 -21 16 -42 16 -47 0 -6 11 -33
25 -62 14 -28 25 -57 25 -63 0 -6 16 -43 35 -82 19 -39 35 -80 35 -92 0 -11 4
-22 9 -26 5 -3 17 -27 26 -53 9 -26 39 -92 65 -147 27 -55 64 -134 84 -175 20
-41 40 -82 45 -90 5 -8 44 -87 87 -175 43 -88 95 -186 116 -217 21 -31 38 -61
38 -65 0 -4 16 -30 35 -57 19 -27 35 -54 35 -60 0 -5 25 -46 55 -91 30 -45 55
-86 55 -92 0 -5 12 -25 26 -44 14 -19 40 -61 57 -93 40 -73 36 -68 126 -201
41 -60 107 -158 146 -216 39 -58 95 -137 125 -174 30 -37 60 -75 65 -84 35
-54 87 -121 96 -121 5 0 15 -12 22 -27 6 -16 20 -37 30 -48 10 -11 38 -49 61
-85 24 -36 77 -105 119 -154 43 -49 77 -93 77 -98 0 -5 15 -24 33 -42 29 -30
97 -106 193 -215 22 -24 57 -61 79 -83 22 -21 110 -107 195 -191 246 -241 487
-467 533 -500 42 -31 156 -128 280 -241 37 -33 83 -70 101 -81 18 -11 53 -37
78 -57 25 -21 49 -38 55 -38 5 0 22 -14 39 -31 16 -17 43 -38 59 -46 17 -9 46
-30 66 -48 20 -18 63 -50 95 -71 33 -21 66 -43 75 -49 87 -56 130 -88 141
-103 7 -9 26 -23 42 -30 16 -7 41 -22 55 -33 27 -21 261 -168 321 -201 19 -11
44 -29 56 -39 11 -10 28 -19 37 -19 9 0 31 -13 49 -29 18 -15 61 -44 96 -62
34 -19 77 -43 95 -54 18 -11 48 -29 66 -40 18 -11 45 -30 60 -42 15 -11 45
-26 67 -32 23 -6 49 -19 58 -30 10 -10 32 -22 51 -25 18 -4 44 -16 59 -27 14
-11 40 -25 58 -31 18 -6 40 -17 48 -24 9 -7 40 -25 70 -39 30 -14 98 -48 150
-75 52 -27 102 -49 110 -50 8 0 35 -14 59 -30 24 -17 52 -30 62 -30 9 0 31
-11 47 -25 17 -14 36 -25 43 -25 26 0 176 -59 233 -92 25 -13 140 -56 186 -69
37 -11 56 -18 135 -54 57 -26 64 -29 400 -142 138 -46 259 -88 270 -93 50 -22
225 -70 254 -70 18 0 45 -7 59 -15 37 -19 133 -45 172 -45 18 0 44 -7 58 -15
32 -17 104 -34 192 -45 36 -4 78 -13 93 -19 16 -6 43 -11 60 -11 18 0 45 -7
61 -15 15 -8 53 -15 83 -15 31 0 77 -7 104 -15 27 -8 71 -22 98 -30 27 -8 70
-15 96 -15 27 0 71 -6 99 -14 117 -32 157 -38 286 -42 148 -4 365 -28 420 -47
44 -14 1788 -21 1865 -7 147 27 275 43 400 50 169 10 233 20 265 43 19 13 46
17 112 17 84 0 148 12 233 44 22 8 56 15 75 16 19 0 46 7 60 15 14 8 39 14 55
15 17 0 43 7 59 15 15 8 48 15 73 15 24 0 57 7 73 15 16 8 36 12 44 9 9 -3 27
4 42 15 20 16 41 21 85 21 32 0 61 5 64 10 3 6 21 10 39 10 19 0 39 7 46 15 7
8 28 17 49 21 20 3 50 13 68 22 18 9 35 13 39 9 4 -3 18 3 32 13 14 12 40 20
61 20 21 0 42 5 48 11 7 7 28 13 48 15 20 1 45 10 54 18 10 9 35 16 57 16 21
1 50 7 63 14 14 8 30 12 37 9 6 -2 29 5 50 16 21 12 46 21 56 21 9 0 20 4 23
10 3 5 18 10 32 10 14 0 44 9 67 19 23 10 61 27 86 37 25 10 52 23 60 30 14
11 39 18 105 31 17 3 41 14 54 24 13 11 34 19 47 19 12 0 26 5 29 10 3 6 16
10 29 10 12 0 31 7 42 15 10 8 26 15 35 15 9 0 28 9 42 20 14 11 34 20 45 20
11 0 25 7 32 15 7 8 22 15 34 15 12 0 31 7 42 15 10 8 26 15 35 15 9 0 22 7
29 15 7 8 22 15 34 15 12 0 42 9 67 21 119 56 210 103 215 111 3 4 13 8 22 8
10 0 37 11 62 25 25 13 96 50 159 82 63 32 135 69 160 81 25 13 53 30 61 37 8
7 30 16 48 20 17 3 51 24 74 46 23 21 50 39 60 39 9 0 21 6 25 12 8 13 29 26
138 82 93 49 123 68 173 109 26 20 51 37 55 37 5 0 22 11 39 25 16 14 42 25
57 25 18 0 39 12 61 35 19 19 42 35 52 35 10 0 32 16 49 35 17 19 37 35 44 35
7 0 18 7 25 15 17 21 143 105 156 105 6 0 30 20 53 45 26 28 51 45 65 45 16 0
36 15 60 45 24 28 46 45 59 45 14 0 41 22 76 60 29 33 61 60 70 60 15 0 44 25
104 89 10 10 30 22 45 26 14 3 51 33 81 66 30 32 63 59 74 59 10 0 57 39 105
87 48 48 107 100 132 116 25 17 106 93 180 170 169 175 303 310 503 505 86 84
157 161 157 170 1 9 34 46 76 82 88 77 116 118 108 159 -7 32 9 49 30 32 10
-8 22 -2 49 26 44 43 46 53 12 53 -31 0 -53 43 -34 66 17 20 31 17 54 -12 l22
-27 22 32 c22 30 22 31 2 31 -27 0 -33 13 -17 35 14 20 36 13 36 -11 0 -24 25
-10 28 16 2 14 -3 27 -12 32 -9 5 -16 13 -16 18 0 15 21 12 34 -5 9 -12 18 -8
55 26 36 34 42 45 38 68 -7 31 8 52 30 44 8 -3 29 9 49 28 41 40 45 62 9 53
-39 -10 -46 23 -10 52 24 19 27 26 21 57 -6 31 -3 38 18 52 21 14 31 15 62 5
51 -17 67 1 31 34 -30 28 -36 56 -12 56 9 0 29 10 45 22 31 22 39 55 19 75
-17 17 -2 62 26 75 14 6 27 18 30 27 3 9 30 29 60 45 38 20 54 34 50 43 -3 8
-5 32 -5 54 0 38 -1 39 -35 39 -33 0 -35 2 -29 26 6 22 4 25 -12 22 -11 -2
-19 -10 -19 -18 0 -16 -31 -39 -52 -40 -18 0 -16 55 2 70 8 7 15 24 15 37 0
23 -3 25 -31 19 -17 -3 -36 -6 -41 -6 -5 0 -8 -13 -7 -28 4 -30 -36 -96 -52
-87 -5 4 -9 -5 -9 -20 0 -17 -8 -29 -25 -37 -19 -9 -25 -19 -25 -45 0 -28 -10
-41 -23 -30 -2 1 -11 -4 -20 -12 -20 -16 -23 -77 -4 -84 9 -3 7 -9 -5 -23 -14
-14 -20 -15 -30 -6 -16 16 -48 15 -48 -1 0 -7 -13 -31 -30 -53 -16 -21 -30
-44 -30 -50 0 -5 -14 -23 -31 -40 -16 -16 -39 -47 -50 -69 -30 -64 -59 -109
-80 -127 -10 -9 -19 -23 -19 -32 0 -9 -23 -39 -50 -67 -27 -28 -50 -60 -50
-70 0 -10 -6 -19 -14 -19 -14 0 -76 -76 -76 -93 0 -5 -15 -24 -32 -42 -40 -40
-78 -85 -78 -92 0 -3 -19 -25 -42 -51 -24 -25 -55 -59 -71 -75 -15 -17 -30
-41 -33 -53 -3 -13 -13 -26 -23 -29 -18 -5 -94 -99 -112 -138 -6 -14 -21 -28
-33 -31 -12 -3 -28 -17 -36 -31 -7 -13 -34 -45 -59 -69 -25 -24 -64 -66 -86
-92 -22 -26 -48 -54 -58 -63 -10 -9 -30 -29 -45 -45 -73 -79 -204 -206 -212
-206 -5 0 -17 -10 -27 -23 -10 -12 -28 -29 -39 -37 -12 -9 -38 -34 -57 -58
-20 -23 -58 -60 -86 -82 -27 -21 -52 -48 -55 -58 -4 -11 -44 -47 -89 -80 -46
-34 -92 -71 -103 -83 -18 -20 -173 -151 -248 -209 -17 -14 -43 -35 -56 -48
-13 -12 -27 -22 -31 -22 -5 0 -16 -8 -26 -18 -10 -10 -54 -46 -98 -79 -44 -33
-86 -68 -94 -77 -7 -9 -22 -16 -32 -16 -11 0 -19 -4 -19 -8 0 -10 -174 -142
-188 -142 -6 0 -26 -13 -44 -30 -18 -17 -36 -30 -41 -30 -5 0 -26 -13 -47 -30
-21 -16 -41 -30 -45 -30 -4 0 -24 -13 -45 -30 -21 -17 -41 -30 -45 -30 -4 0
-24 -13 -45 -30 -21 -16 -45 -30 -54 -30 -9 0 -16 -4 -16 -9 0 -9 -61 -51 -74
-51 -3 0 -6 6 -6 14 0 8 20 24 45 36 25 12 45 25 45 30 0 4 8 11 18 14 21 8
38 18 130 81 40 28 81 55 90 60 10 6 33 22 53 37 20 16 41 28 46 28 6 0 13 7
16 14 3 8 21 23 39 32 18 9 49 31 69 49 19 17 50 38 67 46 18 8 32 17 32 20 0
4 42 37 92 75 51 37 102 75 113 85 83 72 119 102 180 149 39 30 81 66 95 80
14 15 43 40 65 56 22 15 80 67 128 114 48 46 96 89 106 95 20 11 286 262 349
329 20 22 76 80 124 129 48 49 90 98 93 108 4 11 20 26 36 34 16 9 29 20 29
25 0 5 35 47 78 93 42 46 100 113 127 148 28 35 66 80 85 100 19 21 42 48 50
60 8 13 36 46 61 74 25 27 53 66 62 85 8 19 34 53 56 75 23 21 41 43 41 48 0
6 9 19 20 31 51 54 69 77 75 96 3 11 10 20 15 20 5 0 11 8 14 17 4 10 20 33
36 52 17 18 30 38 30 43 0 6 11 19 25 30 14 11 25 30 25 42 0 14 14 34 35 52
19 16 35 33 35 39 0 29 23 85 34 85 23 0 89 107 90 148 1 30 5 38 24 40 12 2
22 7 22 12 0 5 13 23 30 41 16 18 32 45 35 60 4 15 13 30 21 33 8 3 14 17 14
31 0 15 4 35 10 45 12 23 -11 44 -40 35 -22 -7 -27 -34 -9 -52 12 -12 3 -53
-11 -53 -5 0 -16 14 -25 30 -9 17 -20 30 -25 30 -6 0 -10 9 -10 19 0 10 -6 21
-14 24 -8 3 -16 16 -18 29 -3 23 -4 22 -32 -9 -38 -42 -166 -233 -166 -247 0
-6 -13 -23 -30 -38 -30 -26 -39 -48 -19 -48 18 0 49 20 49 33 0 7 19 21 42 32
28 14 44 29 48 45 4 16 13 25 25 25 37 0 24 -30 -30 -75 -30 -24 -55 -50 -55
-57 0 -8 11 -19 25 -25 14 -6 25 -17 25 -24 0 -20 -32 -26 -50 -9 -9 8 -29 15
-43 15 -22 0 -27 -5 -27 -25 0 -20 -5 -25 -25 -25 -28 0 -31 10 -13 43 9 18 6
17 -23 -7 -19 -16 -40 -40 -48 -54 -8 -15 -31 -48 -52 -75 -22 -27 -39 -52
-39 -55 0 -4 -18 -27 -41 -51 -22 -25 -54 -65 -70 -89 -32 -47 -88 -116 -155
-191 -23 -25 -54 -64 -68 -86 -15 -22 -60 -74 -99 -116 -40 -42 -77 -83 -82
-90 -34 -44 -167 -189 -260 -284 -59 -60 -153 -157 -209 -214 -118 -121 -381
-363 -475 -438 -62 -50 -175 -138 -314 -246 -263 -205 -506 -371 -782 -535
-60 -36 -141 -84 -180 -107 -296 -178 -760 -420 -1005 -523 -52 -22 -126 -55
-164 -72 -321 -149 -974 -387 -1318 -482 -38 -10 -101 -27 -140 -38 -144 -41
-224 -62 -288 -77 -36 -8 -92 -21 -125 -29 -103 -24 -328 -67 -545 -104 -428
-73 -1048 -120 -1580 -120 -506 0 -766 21 -1405 115 -297 43 -490 81 -720 140
-627 162 -656 171 -1054 315 -77 28 -527 205 -596 235 -16 8 -122 52 -235 100
-309 131 -884 419 -1020 511 -25 17 -97 61 -160 99 -179 107 -459 297 -660
449 -446 338 -628 487 -843 696 -65 63 -125 118 -131 122 -18 10 -441 458
-546 578 -125 143 -350 422 -431 534 -180 249 -360 505 -410 583 -31 49 -81
126 -111 173 -30 47 -73 117 -95 155 -22 39 -63 107 -91 152 -83 134 -205 358
-285 523 -148 305 -247 513 -247 516 0 2 -21 48 -46 101 -94 199 -215 516
-272 708 -87 295 -184 661 -232 875 -17 74 -35 149 -40 165 -5 17 -14 62 -19
100 -5 39 -17 108 -26 155 -8 47 -22 144 -31 215 -8 72 -19 155 -24 185 -9 49
-18 128 -50 443 -5 48 -12 93 -16 99 -10 16 -5 1194 5 1242 5 23 12 109 16
192 6 129 5 152 -9 163 -13 11 -16 9 -21 -16 -4 -15 -10 -37 -15 -48 -5 -11
-11 -80 -13 -152 -3 -110 -7 -136 -22 -153 -15 -17 -17 -31 -11 -102 8 -106
-8 -489 -22 -514 -22 -39 -32 62 -35 335 -2 237 0 272 14 286 14 14 15 37 11
155 -4 118 -2 143 12 164 12 20 16 50 16 135 0 85 3 113 15 125 11 11 15 33
13 83 -2 37 0 80 5 96 l7 27 -55 0 -55 0 0 60 0 60 -145 0 c-117 0 -145 -3
-145 -14z m-123 -881 c-2 -90 -6 -168 -10 -171 -4 -4 -7 67 -7 158 0 145 3
178 17 178 2 0 2 -74 0 -165z m43 144 c0 -5 -4 -9 -10 -9 -5 0 -10 7 -10 16 0
8 5 12 10 9 6 -3 10 -10 10 -16z m435 -1399 c0 -193 -3 -272 -12 -281 -26 -26
-35 68 -31 311 3 233 9 273 32 250 8 -8 11 -92 11 -280z m33 -389 c7 -79 -7
-221 -23 -221 -26 0 -33 212 -9 274 11 28 26 2 32 -53z m22 -253 c15 -98 4
-218 -19 -204 -12 8 -21 112 -14 163 4 27 11 43 19 43 8 0 14 -1 14 -2z m35
-337 c0 -54 5 -84 15 -96 15 -18 21 -148 7 -161 -17 -17 -27 15 -27 85 0 58
-4 82 -15 91 -11 9 -15 33 -15 90 0 42 3 80 7 84 16 16 27 -20 28 -93z m53
-355 c2 -59 0 -77 -10 -74 -19 7 -29 58 -22 111 10 75 29 53 32 -37z m30 -160
c2 -47 7 -69 17 -73 20 -7 22 -127 3 -121 -8 3 -14 28 -16 63 -2 33 -9 63 -16
69 -19 15 -26 55 -19 99 9 60 28 38 31 -37z m60 -274 c2 -42 0 -52 -12 -52
-13 0 -16 12 -16 56 0 73 24 70 28 -4z m30 -125 c2 -37 0 -47 -12 -47 -12 0
-16 12 -16 51 0 66 24 62 28 -4z m32 -123 c0 -27 6 -52 15 -60 19 -19 21 -98
3 -92 -7 3 -14 25 -16 50 -2 26 -10 52 -18 58 -14 12 -20 81 -8 93 14 14 24
-6 24 -49z m58 -223 c2 -32 0 -42 -10 -39 -7 3 -14 23 -16 47 -2 32 0 42 10
39 7 -3 14 -23 16 -47z m30 -100 c2 -32 0 -42 -10 -39 -7 3 -14 23 -16 47 -2
32 0 42 10 39 7 -3 14 -23 16 -47z m30 -98 c2 -23 10 -47 18 -53 7 -7 14 -29
14 -50 0 -21 7 -43 15 -50 8 -7 15 -27 15 -45 0 -18 7 -38 15 -45 8 -7 15 -27
15 -45 0 -18 7 -38 15 -45 8 -7 15 -22 15 -34 0 -11 7 -30 15 -40 8 -11 15
-34 15 -52 0 -19 6 -34 15 -38 9 -3 15 -18 15 -36 0 -20 -5 -30 -15 -30 -10 0
-15 10 -15 34 0 18 -7 39 -15 46 -8 7 -15 23 -15 35 0 12 -7 28 -15 35 -8 7
-15 29 -15 50 0 21 -7 43 -15 50 -8 7 -15 25 -15 40 0 15 -7 33 -15 40 -9 7
-15 29 -15 52 0 25 -5 41 -15 44 -9 4 -15 19 -15 41 0 19 -7 41 -15 49 -19 19
-21 98 -2 92 6 -3 13 -23 15 -45z m210 -621 c2 -17 10 -36 18 -42 18 -15 19
-63 2 -58 -7 3 -15 18 -16 34 -2 16 -10 33 -18 37 -18 10 -19 70 -1 65 6 -3
13 -18 15 -36z m60 -148 c2 -16 10 -37 19 -46 16 -18 15 -49 -2 -49 -5 0 -12
13 -13 28 -2 15 -10 32 -18 36 -18 10 -19 70 -1 65 6 -3 14 -18 15 -34z m60
-145 c2 -13 10 -32 18 -43 8 -11 14 -29 14 -39 0 -27 -24 -15 -28 14 -2 13
-10 28 -18 32 -18 10 -19 70 -1 65 6 -3 14 -15 15 -29z m60 -148 c3 -16 -1
-22 -10 -19 -7 3 -15 15 -16 27 -3 16 1 22 10 19 7 -3 15 -15 16 -27z m30 -64
c2 -14 10 -31 18 -37 8 -7 14 -23 14 -35 0 -12 7 -28 15 -35 18 -15 20 -53 3
-48 -7 3 -15 15 -16 28 -2 13 -10 30 -18 37 -8 8 -14 23 -14 32 0 10 -7 24
-15 31 -18 15 -20 63 -2 58 6 -3 13 -16 15 -31z m88 -203 c-5 -13 -10 -14 -18
-6 -6 6 -8 18 -4 28 5 13 10 14 18 6 6 -6 8 -18 4 -28z m29 -57 c0 -26 -20
-25 -23 2 -3 16 1 22 10 19 7 -3 13 -12 13 -21z m35 -63 c0 -16 -16 -19 -25
-4 -8 13 4 32 16 25 5 -4 9 -13 9 -21z m25 -57 c0 -26 -20 -25 -23 2 -3 16 1
22 10 19 7 -3 13 -12 13 -21z m33 -61 c3 -12 -1 -17 -10 -14 -7 3 -15 13 -16
22 -3 12 1 17 10 14 7 -3 15 -13 16 -22z m30 -59 c2 -10 -3 -17 -12 -17 -10 0
-16 9 -16 21 0 24 23 21 28 -4z m27 -55 c0 -18 -20 -15 -23 4 -3 10 1 15 10
12 7 -3 13 -10 13 -16z m35 -68 c0 -16 -16 -19 -25 -4 -8 13 4 32 16 25 5 -4
9 -13 9 -21z m30 -55 c0 -20 -15 -26 -25 -9 -9 15 3 43 15 35 5 -3 10 -15 10
-26z m51 -94 c17 -36 29 -68 26 -72 -4 -3 -10 3 -14 13 -4 10 -13 25 -20 32
-7 7 -13 20 -13 28 0 8 -4 14 -10 14 -5 0 -10 11 -10 25 0 14 2 25 4 25 3 0
19 -29 37 -65z m67 -119 c3 -12 -1 -17 -10 -14 -7 3 -15 13 -16 22 -3 12 1 17
10 14 7 -3 15 -13 16 -22z m29 -56 c3 -11 9 -20 13 -20 5 0 12 -10 16 -22 3
-12 13 -28 20 -36 16 -16 18 -32 4 -32 -6 0 -15 10 -20 23 -12 27 -31 56 -47
75 -16 17 -17 32 -2 32 6 0 13 -9 16 -20z m16895 -112 c-15 -15 -26 -4 -18 18
5 13 9 15 18 6 9 -9 9 -15 0 -24z m-16803 -44 c3 -16 1 -17 -13 -5 -19 16 -21
34 -3 29 6 -3 14 -13 16 -24z m16783 9 c23 -21 23 -43 -1 -43 -19 0 -31 18
-31 46 0 18 9 18 32 -3z m-16755 -50 c4 -10 13 -24 20 -31 16 -16 17 -32 3
-32 -6 0 -15 11 -20 24 -5 13 -14 27 -19 31 -14 8 -14 25 -1 25 6 0 14 -8 17
-17z m17066 -81 c9 -21 17 -44 17 -50 0 -14 -32 -3 -43 15 -5 8 -17 11 -33 7
-30 -8 -31 6 -1 40 30 35 40 33 60 -12z m107 -12 c0 -21 -8 -24 -34 -14 -25
10 -19 34 9 34 18 0 25 -5 25 -20z m-17101 -24 c22 -36 25 -46 14 -46 -9 0
-43 57 -43 71 0 16 8 10 29 -25z m16991 -46 c11 -7 12 -12 3 -21 -15 -15 -43
-5 -43 16 0 17 18 19 40 5z m-16943 -27 c3 -10 18 -34 33 -53 15 -19 35 -51
45 -70 10 -19 22 -38 27 -41 11 -7 35 -45 44 -71 3 -10 10 -18 14 -18 11 0 54
-69 48 -76 -6 -5 -118 141 -118 154 0 4 -13 23 -30 42 -16 19 -29 39 -30 44 0
4 -13 28 -30 53 -33 49 -35 53 -20 53 6 0 13 -8 17 -17z m16851 -11 c3 -16 -2
-22 -16 -22 -11 0 -25 -7 -32 -15 -14 -17 -30 -20 -30 -6 0 17 52 72 64 68 6
-2 12 -13 14 -25z m62 -32 c11 -7 12 -12 3 -21 -15 -15 -43 -5 -43 16 0 17 18
19 40 5z m-170 -104 c0 -14 -5 -28 -10 -31 -13 -8 -24 20 -16 40 9 24 26 17
26 -9z m146 10 c7 -19 -12 -53 -45 -82 -31 -28 -35 -29 -55 -8 -26 25 -20 44
15 44 25 0 33 6 42 30 12 32 34 40 43 16z m-505 -49 c-13 -13 -26 -3 -16 12 3
6 11 8 17 5 6 -4 6 -10 -1 -17z m87 -45 c3 -9 -2 -13 -14 -10 -9 1 -19 9 -22
16 -3 9 2 13 14 10 9 -1 19 -9 22 -16z m240 -2 c2 -6 14 -10 27 -10 32 0 40
-16 16 -29 -28 -15 -41 -14 -41 4 0 13 -7 15 -35 9 -33 -6 -35 -5 -35 21 0 26
2 27 33 21 17 -4 34 -11 35 -16z m-308 -90 c0 -5 -4 -10 -10 -10 -5 0 -10 5
-10 10 0 6 5 10 10 10 6 0 10 -4 10 -10z m155 -20 c3 -5 1 -10 -4 -10 -6 0
-11 5 -11 10 0 6 2 10 4 10 3 0 8 -4 11 -10z m-16307 -32 c12 -18 19 -35 16
-37 -5 -6 -53 49 -54 62 -1 18 20 4 38 -25z m16410 10 c-3 -7 -12 -14 -21 -16
-12 -2 -15 1 -11 12 7 19 38 22 32 4z m-16323 -132 c23 -44 12 -41 -22 7 -44
63 -49 75 -19 48 14 -14 33 -38 41 -55z m16214 2 c-5 -18 -9 -34 -9 -35 0 -2
-7 -3 -15 -3 -18 0 -19 9 -5 44 5 14 16 26 24 26 12 0 13 -6 5 -32z m131 14
c0 -13 -12 -22 -22 -16 -10 6 -1 24 13 24 5 0 9 -4 9 -8z m-510 -41 c0 -6 -5
-13 -10 -16 -15 -9 -43 3 -35 15 8 13 45 13 45 1z m438 -30 c10 -6 8 -10 -9
-14 -24 -7 -39 -1 -39 14 0 11 30 12 48 0z m-16168 -90 c-1 -10 -13 -2 -35 23
-19 22 -35 46 -35 55 1 10 13 2 35 -23 19 -22 35 -46 35 -55z m16110 32 c0
-14 -34 -43 -52 -43 -27 0 -22 17 10 34 30 17 42 19 42 9z m-16055 -95 c10
-18 25 -39 32 -47 8 -7 11 -16 8 -20 -4 -3 -13 3 -21 14 -8 11 -23 29 -33 40
-28 34 -33 45 -19 45 8 0 22 -15 33 -32z m120 -152 c67 -83 83 -116 35 -71
-34 31 -114 145 -102 145 4 -1 34 -34 67 -74z m158 -191 c61 -72 79 -114 24
-55 -60 65 -112 133 -97 128 8 -2 41 -35 73 -73z m278 -316 c17 -21 27 -39 22
-39 -11 0 -95 87 -159 165 -27 33 -52 62 -56 63 -5 2 -8 9 -8 15 1 13 148
-138 201 -204z m62 -70 c26 -30 15 -34 -13 -4 -13 14 -19 25 -14 25 5 0 18 -9
27 -21z m162 -169 c3 -5 1 -10 -4 -10 -6 0 -11 5 -11 10 0 6 2 10 4 10 3 0 8
-4 11 -10z m65 -73 c0 -6 -9 -1 -20 11 -11 12 -20 24 -20 28 0 4 9 -1 20 -11
11 -10 20 -23 20 -28z m46 -39 l19 -21 -27 18 c-29 18 -34 25 -20 25 5 0 17
-10 28 -22z m307 -283 c54 -48 95 -90 93 -93 -3 -3 -20 7 -38 20 -55 42 -238
219 -238 230 0 5 19 -8 43 -30 23 -22 86 -79 140 -127z m167 -155 c0 -5 -2
-10 -4 -10 -3 0 -8 5 -11 10 -3 6 -1 10 4 10 6 0 11 -4 11 -10z m90 -72 c29
-27 49 -48 45 -48 -11 0 -125 94 -125 103 0 12 22 -3 80 -55z m145 -119 c11
-10 29 -25 40 -33 12 -10 15 -15 7 -16 -7 0 -19 6 -27 13 -7 6 -25 21 -39 31
-14 10 -26 23 -26 28 0 10 14 3 45 -23z m200 -167 c-6 -6 -95 60 -95 70 0 5
22 -8 50 -29 27 -20 48 -39 45 -41z m81 -54 c24 -17 42 -33 40 -36 -5 -4 -96
58 -96 65 0 8 15 0 56 -29z m109 -84 c17 -14 21 -21 10 -15 -30 14 -61 40 -50
41 6 0 24 -12 40 -26z m125 -84 c20 -16 22 -20 8 -20 -10 0 -18 5 -18 10 0 6
-6 10 -14 10 -8 0 -18 5 -21 10 -11 17 19 11 45 -10z m78 -56 c34 -16 40 -24
20 -24 -13 0 -68 39 -57 40 3 0 20 -7 37 -16z m107 -74 c3 -5 1 -10 -4 -10 -6
0 -11 5 -11 10 0 6 2 10 4 10 3 0 8 -4 11 -10z m90 -60 c3 -5 2 -10 -4 -10 -5
0 -13 5 -16 10 -3 6 -2 10 4 10 5 0 13 -4 16 -10z m95 -60 c13 -8 13 -10 -2
-10 -9 0 -20 5 -23 10 -8 13 5 13 25 0z m55 -40 c3 -5 2 -10 -4 -10 -5 0 -13
5 -16 10 -3 6 -2 10 4 10 5 0 13 -4 16 -10z m40 -20 c3 -5 -1 -10 -9 -10 -9 0
-16 5 -16 10 0 6 4 10 9 10 6 0 13 -4 16 -10z m10505 -35 c0 -8 -5 -15 -11
-15 -6 0 -31 -13 -56 -30 -45 -31 -67 -38 -61 -20 4 13 99 78 116 79 6 1 12
-6 12 -14z m-10450 -5 c0 -5 -7 -7 -15 -4 -8 4 -15 8 -15 10 0 2 7 4 15 4 8 0
15 -4 15 -10z m47 -26 c-3 -3 -12 -4 -19 -1 -8 3 -5 6 6 6 11 1 17 -2 13 -5z
m48 -24 c3 -5 -1 -10 -9 -10 -9 0 -16 5 -16 10 0 6 4 10 9 10 6 0 13 -4 16
-10z m10205 -34 c0 -7 -8 -17 -17 -20 -24 -9 -62 -31 -76 -45 -14 -14 -47 -14
-47 -1 0 6 10 15 23 21 33 15 67 35 80 48 15 15 37 14 37 -3z m-10150 -6 c0
-5 -4 -10 -9 -10 -6 0 -13 5 -16 10 -3 6 1 10 9 10 9 0 16 -4 16 -10z m71 -37
c18 -9 28 -18 22 -20 -6 -2 -26 5 -44 16 -41 25 -26 28 22 4z m9929 -48 c0 -8
-8 -15 -19 -15 -10 0 -24 -7 -31 -15 -7 -8 -18 -15 -25 -15 -7 0 -18 -7 -25
-15 -7 -8 -21 -15 -31 -15 -11 0 -19 -4 -19 -9 0 -5 -12 -14 -27 -20 -16 -6
-36 -16 -45 -23 -14 -10 -20 -10 -29 -1 -10 10 -9 14 4 18 30 9 41 15 72 35
17 10 54 31 82 45 29 15 55 30 58 36 10 15 35 10 35 -6z m-9850 -5 c0 -5 -2
-10 -4 -10 -3 0 -8 5 -11 10 -3 6 -1 10 4 10 6 0 11 -4 11 -10z m60 -30 c0 -5
-4 -10 -9 -10 -6 0 -13 5 -16 10 -3 6 1 10 9 10 9 0 16 -4 16 -10z m47 -26
c-3 -3 -12 -4 -19 -1 -8 3 -5 6 6 6 11 1 17 -2 13 -5z m50 -30 c-3 -3 -12 -4
-19 -1 -8 3 -5 6 6 6 11 1 17 -2 13 -5z m63 -30 c0 -2 -7 -4 -15 -4 -8 0 -15
4 -15 10 0 5 7 7 15 4 8 -4 15 -8 15 -10z m9358 -26 c-7 -19 -38 -22 -38 -4 0
10 9 16 21 16 12 0 19 -5 17 -12z m-9301 -4 c-3 -3 -12 -4 -19 -1 -8 3 -5 6 6
6 11 1 17 -2 13 -5z m9243 -24 c0 -12 -28 -25 -36 -17 -9 9 6 27 22 27 8 0 14
-5 14 -10z m-9193 -6 c-3 -3 -12 -4 -19 -1 -8 3 -5 6 6 6 11 1 17 -2 13 -5z
m9133 -29 c0 -8 -9 -15 -20 -15 -20 0 -26 11 -13 23 12 13 33 7 33 -8z m-9073
-1 c-3 -3 -12 -4 -19 -1 -8 3 -5 6 6 6 11 1 17 -2 13 -5z m9021 -26 c-5 -15
-48 -24 -48 -10 0 14 12 22 33 22 10 0 17 -5 15 -12z m-8961 -4 c-3 -3 -12 -4
-19 -1 -8 3 -5 6 6 6 11 1 17 -2 13 -5z m8894 -29 c0 -5 -9 -11 -21 -13 -20
-3 -27 8 -13 22 10 9 34 3 34 -9z m-8834 -1 c-3 -3 -12 -4 -19 -1 -8 3 -5 6 6
6 11 1 17 -2 13 -5z m8774 -29 c0 -5 -9 -11 -21 -13 -20 -3 -27 8 -13 22 10 9
34 3 34 -9z m-8714 -1 c-3 -3 -12 -4 -19 -1 -8 3 -5 6 6 6 11 1 17 -2 13 -5z
m8653 -29 c0 -8 -9 -15 -20 -15 -20 0 -26 11 -13 23 12 13 33 7 33 -8z m-8593
-1 c-3 -3 -12 -4 -19 -1 -8 3 -5 6 6 6 11 1 17 -2 13 -5z m65 -36 c-12 -12
-35 -1 -27 12 3 5 13 6 21 3 10 -4 12 -9 6 -15z m8466 10 c-5 -15 -48 -24 -48
-10 0 14 12 22 33 22 10 0 17 -5 15 -12z m-60 -30 c-5 -15 -48 -24 -48 -10 0
14 12 22 33 22 10 0 17 -5 15 -12z m-8341 -4 c-3 -3 -12 -4 -19 -1 -8 3 -5 6
6 6 11 1 17 -2 13 -5z m8273 -29 c-14 -16 -50 -21 -50 -6 0 11 18 19 44 20 15
1 16 -2 6 -14z m-8207 -2 c-7 -2 -19 -2 -25 0 -7 3 -2 5 12 5 14 0 19 -2 13
-5z m8147 -22 c0 -10 -24 -21 -47 -21 -13 0 -13 3 -3 15 13 16 50 21 50 6z
m-8077 -8 c-7 -2 -19 -2 -25 0 -7 3 -2 5 12 5 14 0 19 -2 13 -5z m8002 -22 c3
-5 1 -13 -5 -16 -15 -9 -43 3 -35 15 8 13 32 13 40 1z m-7938 -7 c-3 -3 -12
-4 -19 -1 -8 3 -5 6 6 6 11 1 17 -2 13 -5z m68 -24 c3 -5 -1 -10 -10 -10 -9 0
-13 5 -10 10 3 6 8 10 10 10 2 0 7 -4 10 -10z m7796 -5 c0 -5 -9 -11 -21 -13
-20 -3 -27 8 -13 22 10 9 34 3 34 -9z m-63 -27 c-5 -15 -48 -24 -48 -10 0 14
12 22 33 22 10 0 17 -5 15 -12z m-7655 -5 c-7 -2 -19 -2 -25 0 -7 3 -2 5 12 5
14 0 19 -2 13 -5z m7572 -22 c3 -5 1 -13 -5 -16 -15 -9 -43 3 -35 15 8 13 32
13 40 1z m-7502 -8 c-7 -2 -19 -2 -25 0 -7 3 -2 5 12 5 14 0 19 -2 13 -5z
m7435 -25 c-5 -15 -48 -24 -48 -10 0 14 12 22 33 22 10 0 17 -5 15 -12z
m-7355 -5 c-7 -2 -21 -2 -30 0 -10 3 -4 5 12 5 17 0 24 -2 18 -5z m72 -22 c7
-12 -12 -24 -25 -16 -11 7 -4 25 10 25 5 0 11 -4 15 -9z m7205 0 c0 -15 -19
-23 -38 -16 -14 5 -14 7 -2 15 19 12 40 13 40 1z m-76 -30 c8 -12 -20 -22 -40
-14 -13 5 -13 7 -2 14 17 11 35 11 42 0z m-7051 -8 c-7 -2 -19 -2 -25 0 -7 3
-2 5 12 5 14 0 19 -2 13 -5z m82 -22 c8 -14 -10 -22 -30 -15 -13 5 -14 8 -3
15 17 11 26 11 33 0z m6890 -1 c8 -13 -20 -24 -42 -16 -15 6 -15 8 -3 16 20
13 37 12 45 0z m-6810 -30 c3 -6 -4 -10 -17 -10 -18 0 -20 2 -8 10 19 12 18
12 25 0z m6720 1 c8 -14 -10 -22 -30 -15 -13 5 -14 8 -3 15 17 11 26 11 33 0z
m-6636 -41 c-7 -5 -19 -6 -26 -3 -11 5 -12 8 -2 13 7 5 19 6 26 3 11 -5 12 -8
2 -13z m6549 11 c11 -7 10 -10 -3 -15 -20 -7 -38 1 -30 15 7 11 16 11 33 0z
m-6456 -43 c-5 -5 -17 -6 -26 -2 -13 5 -14 9 -5 14 16 11 43 0 31 -12z m6373
13 c3 -5 1 -13 -5 -16 -15 -9 -43 3 -35 15 8 13 32 13 40 1z m-6286 -41 c-7
-5 -19 -6 -26 -3 -11 5 -12 8 -2 13 7 5 19 6 26 3 11 -5 12 -8 2 -13z m6200
11 c11 -7 9 -10 -8 -16 -24 -7 -44 2 -36 16 8 11 26 11 44 0z m-6110 -41 c-7
-5 -19 -6 -26 -3 -11 5 -12 8 -2 13 7 5 19 6 26 3 11 -5 12 -8 2 -13z m6016
11 c3 -5 1 -13 -5 -16 -15 -9 -43 3 -35 15 8 13 32 13 40 1z m-97 -30 c11 -7
11 -9 -2 -14 -9 -4 -23 -4 -32 0 -13 5 -13 7 -2 14 7 5 15 9 18 9 3 0 11 -4
18 -9z m-5815 -8 c-7 -2 -21 -2 -30 0 -10 3 -4 5 12 5 17 0 24 -2 18 -5z
m5722 -23 c8 -13 -20 -24 -41 -16 -20 8 -9 26 16 26 10 0 22 -5 25 -10z
m-5622 -7 c-7 -2 -21 -2 -30 0 -10 3 -4 5 12 5 17 0 24 -2 18 -5z m5516 -22
c11 -7 10 -10 -6 -15 -27 -9 -60 3 -41 15 17 11 29 11 47 0z m-5416 -8 c-7 -2
-21 -2 -30 0 -10 3 -4 5 12 5 17 0 24 -2 18 -5z m106 -33 c-7 -5 -19 -6 -26
-3 -11 5 -12 8 -2 13 7 5 19 6 26 3 11 -5 12 -8 2 -13z m5200 11 c11 -7 10
-10 -6 -15 -27 -9 -60 3 -41 15 17 11 29 11 47 0z m-5085 -41 c-10 -4 -25 -5
-32 -2 -22 8 6 21 31 14 20 -5 20 -6 1 -12z m4975 11 c12 -8 9 -11 -11 -16
-29 -8 -52 1 -43 16 8 12 36 11 54 0z m-4846 -31 c7 0 4 -5 -6 -11 -22 -13
-67 -1 -46 12 8 5 20 7 27 4 8 -3 19 -5 25 -5z m4726 1 c12 -8 9 -11 -11 -16
-29 -8 -52 1 -43 16 8 12 36 11 54 0z m-4600 -30 c11 -7 10 -10 -6 -15 -27 -9
-60 3 -41 15 17 11 29 11 47 0z m4480 0 c12 -8 9 -11 -12 -16 -31 -8 -61 0
-52 15 8 12 45 13 64 1z m-4344 -30 c18 -7 17 -8 -7 -14 -33 -9 -66 2 -46 14
16 10 26 10 53 0z m4204 0 c11 -7 9 -10 -8 -16 -29 -9 -69 4 -50 16 8 5 21 9
29 9 8 0 21 -4 29 -9z m-4061 -30 c20 -12 -13 -23 -46 -14 -24 6 -25 7 -7 14
27 10 37 10 53 0z m3921 0 c11 -7 9 -10 -8 -16 -29 -9 -69 4 -50 16 8 5 21 9
29 9 8 0 21 -4 29 -9z m-3764 -30 c18 -7 17 -8 -6 -14 -13 -3 -35 -3 -49 0
-22 6 -23 7 -4 14 24 10 34 10 59 0z m3614 0 c12 -8 9 -11 -11 -16 -34 -9 -77
3 -57 16 18 11 50 11 68 0z m-3434 -30 c18 -7 16 -9 -12 -15 -40 -9 -83 2 -62
15 17 11 47 10 74 0z m3264 0 c21 -13 -22 -24 -62 -15 -28 6 -30 8 -12 15 27
10 57 11 74 0z m-3060 -30 c20 -13 -41 -24 -81 -15 -29 6 -30 8 -13 15 27 10
77 11 94 0z m2876 0 c17 -7 16 -9 -12 -15 -18 -4 -48 -4 -65 0 -29 6 -30 8
-13 15 11 4 31 8 45 8 14 0 34 -4 45 -8z m-2650 -30 c17 -7 16 -9 -13 -15 -42
-10 -126 3 -97 15 26 10 84 10 110 0z m2435 0 c23 -7 23 -8 -12 -15 -21 -4
-55 -4 -75 0 -36 7 -36 8 -13 15 14 4 36 7 50 7 14 0 36 -3 50 -7z m-2150 -30
c22 -7 19 -9 -22 -16 -25 -4 -66 -4 -90 1 -39 7 -40 8 -18 15 32 9 98 9 130 0z
m1885 -1 c32 -12 -45 -24 -103 -15 -41 7 -44 9 -22 16 33 10 100 10 125 -1z
m-1440 -29 c50 -7 49 -7 -37 -15 -98 -9 -227 2 -173 15 39 9 147 9 210 0z
m1080 0 c54 -13 -75 -24 -173 -15 -81 8 -84 9 -42 15 61 8 178 8 215 0z"/>
<path d="M1014 12135 c0 -58 3 -105 8 -105 4 0 8 47 8 105 0 58 -3 105 -7 105
-5 0 -8 -47 -9 -105z"/>
<path d="M402 12198 c5 -32 28 -35 28 -4 0 17 -5 26 -16 26 -10 0 -14 -7 -12
-22z"/>
<path d="M21126 12161 c-3 -4 -2 -28 3 -52 l9 -44 1 53 c1 51 -2 61 -13 43z"/>
<path d="M407 12114 c-4 -4 -7 -43 -7 -87 0 -44 2 -78 4 -76 3 3 10 35 16 72
10 63 3 107 -13 91z"/>
<path d="M982 11943 c2 -22 -1 -28 -14 -27 -15 2 -18 -6 -17 -50 1 -45 2 -47
8 -17 l6 34 15 -39 14 -39 6 48 c7 58 1 117 -12 117 -5 0 -8 -12 -6 -27z"/>
<path d="M21125 9685 c-7 -77 -2 -102 16 -75 8 12 3 138 -6 148 -1 2 -6 -31
-10 -73z"/>
<path d="M19860 7040 c0 -5 5 -10 10 -10 6 0 10 5 10 10 0 6 -4 10 -10 10 -5
0 -10 -4 -10 -10z"/>
<path d="M19737 6803 c-4 -3 -7 -17 -7 -30 0 -28 23 -27 28 1 4 20 -11 40 -21
29z"/>
<path d="M19680 6700 c0 -5 5 -10 10 -10 6 0 10 5 10 10 0 6 -4 10 -10 10 -5
0 -10 -4 -10 -10z"/>
<path d="M19557 6435 c-4 -8 -3 -16 1 -19 13 -8 35 11 28 23 -10 15 -23 14
-29 -4z"/>
<path d="M19680 6420 c0 -5 7 -10 16 -10 8 0 12 5 9 10 -3 6 -10 10 -16 10 -5
0 -9 -4 -9 -10z"/>
<path d="M19565 6351 c-3 -5 -1 -12 5 -16 5 -3 10 1 10 9 0 18 -6 21 -15 7z"/>
<path d="M19511 6324 c0 -11 3 -14 6 -6 3 7 2 16 -1 19 -3 4 -6 -2 -5 -13z"/>
<path d="M19765 6271 c-7 -12 24 -43 36 -35 5 3 5 13 -1 25 -11 20 -25 25 -35
10z"/>
<path d="M19503 6213 c-17 -6 -17 -28 0 -41 17 -14 40 1 35 23 -3 20 -16 26
-35 18z"/>
<path d="M19986 6193 c-12 -12 -6 -33 9 -33 8 0 15 6 15 14 0 17 -14 28 -24
19z"/>
<path d="M19420 6170 c0 -11 40 -34 47 -26 3 3 3 12 0 21 -7 16 -47 21 -47 5z"/>
<path d="M19387 6123 c-4 -3 -7 -17 -7 -30 0 -28 23 -27 28 1 4 20 -11 40 -21
29z"/>
<path d="M19674 6089 c-8 -14 11 -33 25 -25 11 7 4 36 -9 36 -5 0 -12 -5 -16
-11z"/>
<path d="M19781 6084 c0 -11 3 -14 6 -6 3 7 2 16 -1 19 -3 4 -6 -2 -5 -13z"/>
<path d="M19936 6075 c4 -8 8 -15 10 -15 2 0 4 7 4 15 0 8 -4 15 -10 15 -5 0
-7 -7 -4 -15z"/>
<path d="M19328 6024 c-13 -28 -1 -44 34 -44 23 0 30 14 22 45 -8 33 -41 33
-56 -1z"/>
<path d="M19620 6016 c0 -2 7 -9 15 -16 9 -7 15 -8 15 -2 0 5 -7 12 -15 16 -8
3 -15 4 -15 2z"/>
<path d="M19450 5979 c0 -16 27 -46 35 -38 2 2 -5 15 -15 29 -15 19 -20 21
-20 9z"/>
<path d="M19742 5964 c1 -9 9 -19 16 -22 9 -3 13 2 10 14 -1 9 -9 19 -16 22
-9 3 -13 -2 -10 -14z"/>
<path d="M19225 5858 c-8 -18 -23 -46 -35 -63 -11 -16 -20 -36 -20 -42 0 -22
33 -14 62 14 22 21 30 24 42 14 15 -13 36 -7 36 9 0 5 -9 12 -21 15 -14 5 -20
14 -19 33 3 44 1 52 -16 52 -8 0 -21 -15 -29 -32z"/>
<path d="M19400 5871 c0 -29 24 -45 40 -26 10 12 10 18 0 30 -17 21 -40 19
-40 -4z"/>
<path d="M19606 5852 c-3 -6 -1 -14 5 -17 15 -10 25 3 12 16 -7 7 -13 7 -17 1z"/>
<path d="M19337 5843 c-13 -12 -7 -33 8 -33 8 0 15 9 15 20 0 20 -11 26 -23
13z"/>
<path d="M19670 5815 c0 -28 24 -65 42 -65 22 0 24 23 3 40 -8 7 -15 19 -15
26 0 8 -7 14 -15 14 -8 0 -15 -7 -15 -15z"/>
<path d="M19480 5780 c0 -11 5 -20 10 -20 6 0 10 9 10 20 0 11 -4 20 -10 20
-5 0 -10 -9 -10 -20z"/>
<path d="M19353 5755 c-17 -28 -19 -36 -8 -45 10 -8 15 -6 20 9 3 10 12 22 20
25 18 7 20 46 3 46 -7 -1 -23 -16 -35 -35z"/>
<path d="M19445 5719 c-10 -15 3 -25 16 -12 7 7 7 13 1 17 -6 3 -14 1 -17 -5z"/>
<path d="M19213 5691 c-18 -15 -33 -35 -33 -44 0 -24 37 -22 50 3 11 21 54 28
65 10 11 -18 23 -11 18 10 -6 21 -40 50 -58 50 -5 -1 -25 -13 -42 -29z"/>
<path d="M19121 5676 c-23 -36 -27 -56 -12 -56 5 0 11 -12 13 -27 2 -22 8 -28
28 -28 21 0 26 5 28 32 2 24 -1 33 -17 38 -22 7 -28 29 -11 40 13 8 13 35 1
35 -5 0 -19 -15 -30 -34z"/>
<path d="M19570 5685 c0 -9 5 -15 11 -13 6 2 11 8 11 13 0 5 -5 11 -11 13 -6
2 -11 -4 -11 -13z"/>
<path d="M19692 5667 c-34 -35 -39 -56 -20 -75 19 -19 26 -15 38 22 6 19 18
40 26 46 18 15 18 40 1 40 -7 0 -27 -15 -45 -33z"/>
<path d="M19491 5654 c-19 -22 -21 -32 -16 -79 4 -32 13 -56 21 -59 8 -3 14
-12 14 -20 0 -9 12 -23 26 -33 25 -16 27 -16 40 2 8 10 14 22 14 27 0 4 14 5
30 2 24 -5 30 -3 30 11 0 9 -9 19 -20 22 -20 5 -20 7 -5 30 9 14 14 31 11 39
-8 20 -50 17 -71 -6 -21 -24 -55 -11 -55 21 0 17 4 20 24 15 17 -4 26 -1 30
11 8 19 0 28 -30 37 -14 4 -27 -1 -43 -20z m69 -110 c0 -8 -5 -12 -10 -9 -6 4
-8 11 -5 16 9 14 15 11 15 -7z"/>
<path d="M19400 5650 c-11 -7 -12 -14 -4 -27 15 -24 30 -27 38 -7 9 23 -14 46
-34 34z"/>
<path d="M19252 5622 c-15 -10 -7 -38 13 -46 18 -7 37 17 29 38 -7 17 -22 20
-42 8z"/>
<path d="M19660 5474 c0 -8 5 -12 10 -9 6 3 10 10 10 16 0 5 -4 9 -10 9 -5 0
-10 -7 -10 -16z"/>
<path d="M19590 5436 c0 -8 5 -18 10 -21 6 -3 10 1 10 9 0 8 -4 18 -10 21 -5
3 -10 -1 -10 -9z"/>
<path d="M19566 5331 c-4 -5 -2 -12 3 -15 5 -4 12 -2 15 3 4 5 2 12 -3 15 -5
4 -12 2 -15 -3z"/>
<path d="M19410 5165 c0 -8 5 -15 10 -15 6 0 10 7 10 15 0 8 -4 15 -10 15 -5
0 -10 -7 -10 -15z"/>
<path d="M19386 5064 c-10 -25 -7 -34 9 -28 17 7 20 30 6 38 -5 3 -12 -1 -15
-10z"/>
<path d="M19245 4840 c-3 -5 -1 -10 4 -10 6 0 11 5 11 10 0 6 -2 10 -4 10 -3
0 -8 -4 -11 -10z"/>
</g>
</svg>
